<svg width="16" height="16" viewBox="0 0 16 16" xmlns="http://www.w3.org/2000/svg">
    <path fill="#FF2A2A" d="M14 4.5V14a2 2 0 0 1-2 2H4a2 2 0 0 1-2-2V2a2 2 0 0 1 2-2h5.5L14 4.5zm-3 0A1.5 1.5 0 0 1 9.5 3V1H4a1 1 0 0 0-1 1v12a1 1 0 0 0 1 1h8a1 1 0 0 0 1-1V4.5h-2z"/>
    <path fill="#FF2A2A" d="M4.603 12.087a.81.81 0 0 1-.438-.42c-.195-.388-.13-.776.08-1.102.198-.307.526-.568.897-.787a7.68 7.68 0 0 1 1.482-.645 19.701 19.701 0 0 0 1.062-2.227 7.269 7.269 0 0 1-.43-1.295c-.086-.4-.113-.796-.025-1.124.086-.328.274-.588.569-.734.295-.145.69-.138 1.005.11.316.236.54.644.65 1.155.108.512.32.998.123 1.457a.47.47 0 0 1-.123.288.57.57 0 0 1-.345.086c-.107 0-.232-.038-.38-.058-.169-.087.146-.702.0813-.98-.093-.28-.59-.418-.708-.4-.118.017-.35.2-.178.538-.13.337-.097.656-.073.768.013.36.052.116.089.165.256.22.327.18.327.18s.192.09.39.18c.197.09.025.28.025.28s.18.052.075.265-.293.648-.392.815c-.09.167-.302.542-.238.638.065.096.154.237.279.339.125.102.024.33.024.33s-.09.03-.203.196c-.113.166-.04.366.153.51.193.144.18.525.18.525s-.334.558-.355.662c-.02.104.153.25.353.355.2.105.114.41.06.488-.078-.003-.15-.016-.22-.04a4.885 4.885 0 0 1-.727-.233c-.348-.135-.676-.315-.96-.51C5 11.315 4.7 11.03 4.603 12.087" />
</svg>