<svg xmlns="http://www.w3.org/2000/svg" xmlns:xlink="http://www.w3.org/1999/xlink" width="1080" zoomAndPan="magnify" viewBox="0 0 810 809.999993" height="1080" preserveAspectRatio="xMidYMid meet" version="1.0"><defs><filter x="0%" y="0%" width="100%" height="100%" id="a392524d50"><feColorMatrix values="0 0 0 0 1 0 0 0 0 1 0 0 0 0 1 0 0 0 1 0" color-interpolation-filters="sRGB"/></filter><g/><clipPath id="20105c7f19"><path d="M 149.34375 531.765625 L 661 531.765625 L 661 752.859375 L 149.34375 752.859375 Z M 149.34375 531.765625 " clip-rule="nonzero"/></clipPath><clipPath id="f700e781ad"><path d="M 405 531.765625 C 263.804688 531.765625 149.34375 581.261719 149.34375 642.3125 C 149.34375 703.367188 263.804688 752.859375 405 752.859375 C 546.195312 752.859375 660.65625 703.367188 660.65625 642.3125 C 660.65625 581.261719 546.195312 531.765625 405 531.765625 Z M 405 531.765625 " clip-rule="nonzero"/></clipPath><mask id="18a1f8a5e5"><g filter="url(#a392524d50)"><rect x="-81" width="972" fill="#000000" y="-80.999999" height="971.999992" fill-opacity="0.3"/></g></mask><clipPath id="e2d89edfbd"><path d="M 0.34375 0.0429688 L 512 0.0429688 L 512 221.136719 L 0.34375 221.136719 Z M 0.34375 0.0429688 " clip-rule="nonzero"/></clipPath><clipPath id="9b2e7f1bf3"><path d="M 256 0.0429688 C 114.804688 0.0429688 0.34375 49.535156 0.34375 110.589844 C 0.34375 171.640625 114.804688 221.136719 256 221.136719 C 397.195312 221.136719 511.65625 171.640625 511.65625 110.589844 C 511.65625 49.535156 397.195312 0.0429688 256 0.0429688 Z M 256 0.0429688 " clip-rule="nonzero"/></clipPath><clipPath id="01abd07d97"><rect x="0" width="513" y="0" height="222"/></clipPath><clipPath id="034d175d3b"><path d="M 149.34375 463.519531 L 661 463.519531 L 661 684.613281 L 149.34375 684.613281 Z M 149.34375 463.519531 " clip-rule="nonzero"/></clipPath><clipPath id="298f38f859"><path d="M 405 463.519531 C 263.804688 463.519531 149.34375 513.011719 149.34375 574.066406 C 149.34375 635.121094 263.804688 684.613281 405 684.613281 C 546.195312 684.613281 660.65625 635.121094 660.65625 574.066406 C 660.65625 513.011719 546.195312 463.519531 405 463.519531 Z M 405 463.519531 " clip-rule="nonzero"/></clipPath><mask id="9337d01d63"><g filter="url(#a392524d50)"><rect x="-81" width="972" fill="#000000" y="-80.999999" height="971.999992" fill-opacity="0.3"/></g></mask><clipPath id="473530d68e"><path d="M 0.28125 1 L 512 1 L 512 222.09375 L 0.28125 222.09375 Z M 0.28125 1 " clip-rule="nonzero"/></clipPath><clipPath id="6dbfd44307"><path d="M 255.9375 1 C 114.742188 1 0.28125 50.492188 0.28125 111.546875 C 0.28125 172.601562 114.742188 222.09375 255.9375 222.09375 C 397.132812 222.09375 511.59375 172.601562 511.59375 111.546875 C 511.59375 50.492188 397.132812 1 255.9375 1 Z M 255.9375 1 " clip-rule="nonzero"/></clipPath><clipPath id="e20b503528"><rect x="0" width="513" y="0" height="223"/></clipPath><clipPath id="b42a29cd93"><path d="M 149.34375 375.539062 L 661 375.539062 L 661 596.636719 L 149.34375 596.636719 Z M 149.34375 375.539062 " clip-rule="nonzero"/></clipPath><clipPath id="416762c826"><path d="M 405 375.539062 C 263.804688 375.539062 149.34375 425.035156 149.34375 486.089844 C 149.34375 547.140625 263.804688 596.636719 405 596.636719 C 546.195312 596.636719 660.65625 547.140625 660.65625 486.089844 C 660.65625 425.035156 546.195312 375.539062 405 375.539062 Z M 405 375.539062 " clip-rule="nonzero"/></clipPath><mask id="9a28b14d73"><g filter="url(#a392524d50)"><rect x="-81" width="972" fill="#000000" y="-80.999999" height="971.999992" fill-opacity="0.3"/></g></mask><clipPath id="eee5fecfbe"><path d="M 0.34375 0.671875 L 512 0.671875 L 512 221.765625 L 0.34375 221.765625 Z M 0.34375 0.671875 " clip-rule="nonzero"/></clipPath><clipPath id="b20a2b75db"><path d="M 256 0.671875 C 114.804688 0.671875 0.34375 50.164062 0.34375 111.21875 C 0.34375 172.273438 114.804688 221.765625 256 221.765625 C 397.195312 221.765625 511.65625 172.273438 511.65625 111.21875 C 511.65625 50.164062 397.195312 0.671875 256 0.671875 Z M 256 0.671875 " clip-rule="nonzero"/></clipPath><clipPath id="c9861fc923"><rect x="0" width="513" y="0" height="222"/></clipPath><clipPath id="2fc0f926ad"><path d="M 149.34375 275.945312 L 661 275.945312 L 661 497.042969 L 149.34375 497.042969 Z M 149.34375 275.945312 " clip-rule="nonzero"/></clipPath><clipPath id="cbdfae9c13"><path d="M 405 275.945312 C 263.804688 275.945312 149.34375 325.441406 149.34375 386.492188 C 149.34375 447.546875 263.804688 497.042969 405 497.042969 C 546.195312 497.042969 660.65625 447.546875 660.65625 386.492188 C 660.65625 325.441406 546.195312 275.945312 405 275.945312 Z M 405 275.945312 " clip-rule="nonzero"/></clipPath></defs><rect x="-81" width="972" fill="#ffffff" y="-80.999999" height="971.999992" fill-opacity="1"/><rect x="-81" width="972" fill="#000000" y="-80.999999" height="971.999992" fill-opacity="1"/><g clip-path="url(#20105c7f19)"><g clip-path="url(#f700e781ad)"><path fill="#ff914d" d="M 149.34375 531.765625 L 660.625 531.765625 L 660.625 752.859375 L 149.34375 752.859375 Z M 149.34375 531.765625 " fill-opacity="1" fill-rule="nonzero"/></g></g><g fill="#ff914d" fill-opacity="0.4"><g transform="translate(45.073563, 262.587088)"><g><path d="M 94.671875 -193.3125 C 126.054688 -193.3125 150.007812 -185.203125 166.53125 -168.984375 C 183.0625 -152.765625 191.328125 -128.65625 191.328125 -96.65625 C 191.328125 -64.75 183.0625 -40.660156 166.53125 -24.390625 C 150.007812 -8.128906 126.054688 0 94.671875 0 L 25.125 0 L 25.125 -193.3125 Z M 92.421875 -32.125 C 112.347656 -32.125 127.242188 -37.210938 137.109375 -47.390625 C 146.984375 -57.578125 151.921875 -74 151.921875 -96.65625 C 151.921875 -119.3125 146.984375 -135.726562 137.109375 -145.90625 C 127.242188 -156.09375 112.347656 -161.1875 92.421875 -161.1875 L 63.328125 -161.1875 L 63.328125 -32.125 Z M 92.421875 -32.125 "/></g></g><g transform="translate(251.745583, 262.587088)"><g><path d="M 185.515625 0 L 145.3125 0 L 130.765625 -44.5625 L 56.71875 -44.5625 L 42.1875 0 L 2.90625 0 L 69.6875 -193.3125 L 118.734375 -193.3125 Z M 91.890625 -152.984375 L 67.03125 -76.6875 L 120.1875 -76.6875 L 95.203125 -152.984375 Z M 91.890625 -152.984375 "/></g></g><g transform="translate(440.170169, 262.587088)"><g><path d="M 154.96875 -193.3125 L 154.96875 -161.1875 L 99.171875 -161.1875 L 99.171875 0 L 61.09375 0 L 61.09375 -161.1875 L 5.28125 -161.1875 L 5.28125 -193.3125 Z M 154.96875 -193.3125 "/></g></g><g transform="translate(600.43024, 262.587088)"><g><path d="M 185.515625 0 L 145.3125 0 L 130.765625 -44.5625 L 56.71875 -44.5625 L 42.1875 0 L 2.90625 0 L 69.6875 -193.3125 L 118.734375 -193.3125 Z M 91.890625 -152.984375 L 67.03125 -76.6875 L 120.1875 -76.6875 L 95.203125 -152.984375 Z M 91.890625 -152.984375 "/></g></g></g><g fill="#ff914d" fill-opacity="1"><g transform="translate(33.105471, 250.618997)"><g><path d="M 94.671875 -193.3125 C 126.054688 -193.3125 150.007812 -185.203125 166.53125 -168.984375 C 183.0625 -152.765625 191.328125 -128.65625 191.328125 -96.65625 C 191.328125 -64.75 183.0625 -40.660156 166.53125 -24.390625 C 150.007812 -8.128906 126.054688 0 94.671875 0 L 25.125 0 L 25.125 -193.3125 Z M 92.421875 -32.125 C 112.347656 -32.125 127.242188 -37.210938 137.109375 -47.390625 C 146.984375 -57.578125 151.921875 -74 151.921875 -96.65625 C 151.921875 -119.3125 146.984375 -135.726562 137.109375 -145.90625 C 127.242188 -156.09375 112.347656 -161.1875 92.421875 -161.1875 L 63.328125 -161.1875 L 63.328125 -32.125 Z M 92.421875 -32.125 "/></g></g><g transform="translate(239.77749, 250.618997)"><g><path d="M 185.515625 0 L 145.3125 0 L 130.765625 -44.5625 L 56.71875 -44.5625 L 42.1875 0 L 2.90625 0 L 69.6875 -193.3125 L 118.734375 -193.3125 Z M 91.890625 -152.984375 L 67.03125 -76.6875 L 120.1875 -76.6875 L 95.203125 -152.984375 Z M 91.890625 -152.984375 "/></g></g><g transform="translate(428.202077, 250.618997)"><g><path d="M 154.96875 -193.3125 L 154.96875 -161.1875 L 99.171875 -161.1875 L 99.171875 0 L 61.09375 0 L 61.09375 -161.1875 L 5.28125 -161.1875 L 5.28125 -193.3125 Z M 154.96875 -193.3125 "/></g></g><g transform="translate(588.462147, 250.618997)"><g><path d="M 185.515625 0 L 145.3125 0 L 130.765625 -44.5625 L 56.71875 -44.5625 L 42.1875 0 L 2.90625 0 L 69.6875 -193.3125 L 118.734375 -193.3125 Z M 91.890625 -152.984375 L 67.03125 -76.6875 L 120.1875 -76.6875 L 95.203125 -152.984375 Z M 91.890625 -152.984375 "/></g></g></g><g mask="url(#18a1f8a5e5)"><g transform="matrix(1, 0, 0, 1, 149, 497)"><g clip-path="url(#01abd07d97)"><g clip-path="url(#e2d89edfbd)"><g clip-path="url(#9b2e7f1bf3)"><path fill="#000000" d="M 0.34375 0.0429688 L 511.625 0.0429688 L 511.625 221.136719 L 0.34375 221.136719 Z M 0.34375 0.0429688 " fill-opacity="1" fill-rule="nonzero"/></g></g></g></g></g><g clip-path="url(#034d175d3b)"><g clip-path="url(#298f38f859)"><path fill="#7ed957" d="M 149.34375 463.519531 L 660.625 463.519531 L 660.625 684.613281 L 149.34375 684.613281 Z M 149.34375 463.519531 " fill-opacity="1" fill-rule="nonzero"/></g></g><g mask="url(#9337d01d63)"><g transform="matrix(1, 0, 0, 1, 141, 404)"><g clip-path="url(#e20b503528)"><g clip-path="url(#473530d68e)"><g clip-path="url(#6dbfd44307)"><path fill="#000000" d="M 0.28125 1 L 511.5625 1 L 511.5625 222.09375 L 0.28125 222.09375 Z M 0.28125 1 " fill-opacity="1" fill-rule="nonzero"/></g></g></g></g></g><g clip-path="url(#b42a29cd93)"><g clip-path="url(#416762c826)"><path fill="#ff5757" d="M 149.34375 375.539062 L 660.625 375.539062 L 660.625 596.636719 L 149.34375 596.636719 Z M 149.34375 375.539062 " fill-opacity="1" fill-rule="nonzero"/></g></g><g mask="url(#9a28b14d73)"><g transform="matrix(1, 0, 0, 1, 149, 310)"><g clip-path="url(#c9861fc923)"><g clip-path="url(#eee5fecfbe)"><g clip-path="url(#b20a2b75db)"><path fill="#000000" d="M 0.34375 0.671875 L 511.625 0.671875 L 511.625 221.765625 L 0.34375 221.765625 Z M 0.34375 0.671875 " fill-opacity="1" fill-rule="nonzero"/></g></g></g></g></g><g clip-path="url(#2fc0f926ad)"><g clip-path="url(#cbdfae9c13)"><path fill="#38b6ff" d="M 149.34375 275.945312 L 660.625 275.945312 L 660.625 497.042969 L 149.34375 497.042969 Z M 149.34375 275.945312 " fill-opacity="1" fill-rule="nonzero"/></g></g></svg>