<?xml version="1.0" encoding="UTF-8"?>
<svg version="1.1" xmlns="http://www.w3.org/2000/svg" width="256" height="256">
<path d="M0 0 C84.48 0 168.96 0 256 0 C256 84.48 256 168.96 256 256 C171.52 256 87.04 256 0 256 C0 171.52 0 87.04 0 0 Z " fill="#010000" transform="translate(0,0)"/>
<path d="M0 0 C18.48 0 36.96 0 56 0 C56 64.68 56 129.36 56 196 C20.14873714 204.60430309 20.14873714 204.60430309 17 204 C10.46986726 199.36954224 4.7464964 193.79815897 3.125 185.75 C2.86676602 183.9179621 2.60979686 182.08570175 2.36767578 180.25146484 C1.5844479 175.45536421 0.26916738 170.76609964 -0.9375 166.0625 C-1.19934082 165.02174316 -1.46118164 163.98098633 -1.73095703 162.90869141 C-3.18564388 157.13270218 -4.69169045 151.37381986 -6.25 145.625 C-7.55713232 140.79240705 -8.69571984 135.97362814 -9.60546875 131.05078125 C-9.99788438 129.01099704 -10.47817143 127.01017439 -11 125 C-10.93941406 125.928125 -10.87882812 126.85625 -10.81640625 127.8125 C-10.08500165 139.6639088 -9.70401233 151.52009436 -9.39282227 163.38867188 C-9.22088127 169.51383467 -8.98720854 175.60421819 -8.47265625 181.7109375 C-7.95692878 187.92310933 -7.88466522 194.08206046 -7.9375 200.3125 C-7.94201172 201.35083984 -7.94652344 202.38917969 -7.95117188 203.45898438 C-7.96275592 205.97272175 -7.97906077 208.48632623 -8 211 C-13.17637096 212.14598689 -18.3541871 213.28511095 -23.53344727 214.41796875 C-25.29427569 214.80411675 -27.05469839 215.19211978 -28.81469727 215.58203125 C-31.34806998 216.14293614 -33.88283841 216.69710073 -36.41796875 217.25 C-37.59325386 217.51248535 -37.59325386 217.51248535 -38.7922821 217.78027344 C-46.55734321 219.46006195 -46.55734321 219.46006195 -50 219 C-51.68061449 216.87727792 -52.90919427 215.03230641 -54.1875 212.6875 C-54.86843659 211.50387576 -55.54942452 210.32028106 -56.23046875 209.13671875 C-56.81441406 208.10160156 -57.39835937 207.06648437 -58 206 C-58.66 205.01 -59.32 204.02 -60 203 C-60.39477539 200.3203125 -60.39477539 200.3203125 -60.59765625 197.125 C-60.67693359 195.97515625 -60.75621094 194.8253125 -60.83789062 193.640625 C-60.91201172 192.43921875 -60.98613281 191.2378125 -61.0625 190 C-61.21668548 187.62477906 -61.37408761 185.2497641 -61.53515625 182.875 C-61.600979 181.82054687 -61.66680176 180.76609375 -61.73461914 179.6796875 C-61.91001871 176.90128793 -61.91001871 176.90128793 -63 174 C-63.24739028 171.03781232 -63.44802108 168.08802184 -63.61328125 165.12109375 C-63.7256 163.25307369 -63.8382451 161.38507324 -63.95117188 159.51708984 C-64.00974365 158.5277948 -64.06831543 157.53849976 -64.12866211 156.51922607 C-65.16880862 139.08295874 -66.50535684 121.70882641 -68.25640869 104.33023071 C-69.87525739 88.19408301 -71.03794155 72.04384815 -72.04882812 55.85888672 C-72.10609573 54.95938293 -72.16336334 54.05987915 -72.22236633 53.13311768 C-72.32886848 51.45214181 -72.43209273 49.77095377 -72.53141785 48.08953857 C-72.75210493 44.60079599 -73.14031155 41.3776608 -74 38 C-75.14572878 26.33054017 -75 14.73559573 -75 3 C-55.86 3 -36.72 3 -17 3 C-10.16648472 21.22270742 -10.16648472 21.22270742 -7.8125 29.0625 C-6.51459443 33.36382342 -5.23251553 37.60383876 -3.42578125 41.72265625 C-2.17165437 44.60543009 -1.23099549 47.35739973 -0.375 50.375 C2.004753 58.32911607 4.8770613 66.09854506 7.73876953 73.89013672 C10.04535567 80.20534236 12.1565033 86.53381611 14 93 C12.92168218 80.97756098 11.07133965 69.15919563 8.96484375 57.27587891 C7.27135798 47.69647741 5.74720275 38.10078895 4.34423828 28.47460938 C3.71759115 24.25885953 3.09233857 20.12864063 1.94921875 16.01953125 C0.71291074 10.78430104 0.44672056 5.36064675 0 0 Z " fill="#FE2121" transform="translate(83,21)"/>
<path d="M0 0 C1.40299551 -0.01228829 2.80599029 -0.02465916 4.20898438 -0.03710938 C17.1203151 -0.09327592 29.11849575 -0.13596572 38.9375 9.1875 C43.14501142 14.17568221 45.20671946 19.96604561 46.9375 26.1875 C47.11023438 26.785625 47.28296875 27.38375 47.4609375 28 C50.45933106 41.76311796 49.69210188 63.26553205 42.0625 75.4375 C37.80440751 80.9405876 33.3154955 83.68632529 26.9375 86.1875 C28.16726562 86.65929687 28.16726562 86.65929687 29.421875 87.140625 C30.49953125 87.56859375 31.5771875 87.9965625 32.6875 88.4375 C33.75484375 88.85515625 34.8221875 89.2728125 35.921875 89.703125 C39.79364397 91.60891802 42.15267606 93.65915864 44.125 97.5 C47.65540919 109.17750733 46.0849686 122.61530876 45.5625 134.6875 C45.53172363 135.49920654 45.50094727 136.31091309 45.46923828 137.1472168 C45.19642331 142.67426706 44.28542563 147.82610275 42.9375 153.1875 C42.72609375 154.10660156 42.5146875 155.02570313 42.296875 155.97265625 C39.95956217 164.70761382 35.26464639 170.95382401 27.9375 176.1875 C14.73518231 183.06370713 -1.41606843 185.19017265 -15.8034668 188.44873047 C-24.41485838 190.40079212 -32.99263291 192.37847302 -41.50390625 194.734375 C-45.10244474 195.37167342 -47.16760766 194.65688524 -50.38595486 192.96881104 C-54.54902505 189.92820975 -56.74555559 187.62313335 -57.87704659 182.4979248 C-58.29168286 177.76698873 -58.17667989 173.03969422 -58.08422852 168.296875 C-58.08168769 166.47305935 -58.08311907 164.6492345 -58.08821106 162.82542419 C-58.0907877 157.88929252 -58.03797203 152.95513923 -57.97504544 148.0194664 C-57.91868629 142.85593517 -57.91348928 137.6923558 -57.90281677 132.52856445 C-57.87487187 122.75712923 -57.8010556 112.98660299 -57.71067137 103.21556759 C-57.60998579 92.08875755 -57.56056833 80.9619035 -57.51541245 69.83475113 C-57.42140333 46.95183063 -57.26315616 24.0697163 -57.0625 1.1875 C-51.85050792 1.04736987 -46.63849466 0.90806381 -41.42646122 0.76948071 C-39.65793754 0.72234604 -37.88941957 0.67499657 -36.12090778 0.62741756 C-24.08038266 0.30366986 -12.04559103 0.00600778 0 0 Z " fill="#FD1A1A" transform="translate(203.0625,17.8125)"/>
<path d="M0 0 C2.15293883 0.01102016 4.30508862 -0.00018953 6.45800781 -0.01269531 C31.92513668 -0.0432504 31.92513668 -0.0432504 41.72363281 9.26074219 C45.93114423 14.2489244 47.99285227 20.0392878 49.72363281 26.26074219 C49.89636719 26.85886719 50.06910156 27.45699219 50.24707031 28.07324219 C52.8925857 40.2165915 52.39921509 58.61168054 47.72363281 70.26074219 C43.76199211 72.403151 40.12130963 72.56122703 35.67285156 72.67480469 C35.01404495 72.69417084 34.35523834 72.71353699 33.6764679 72.73348999 C31.58815138 72.7929016 29.49977857 72.8395151 27.41113281 72.88574219 C25.98858376 72.92395751 24.56605697 72.96301128 23.14355469 73.00292969 C19.67045207 73.09857015 16.19718149 73.18274192 12.72363281 73.26074219 C12.74458008 72.2872583 12.76552734 71.31377441 12.78710938 70.31079102 C12.85971468 66.68610443 12.90550616 63.06148164 12.94335938 59.4362793 C12.96342839 57.86976295 12.99069032 56.3033211 13.02539062 54.73706055 C13.07412035 52.48044425 13.09664751 50.22482136 13.11425781 47.96777344 C13.13490295 47.27174515 13.1555481 46.57571686 13.17681885 45.8585968 C13.17846252 42.26626987 12.79633374 40.373699 10.83300781 37.32324219 C8.54032645 35.0815093 7.61451778 34.60528644 4.47363281 34.44824219 C3.23613281 34.38636719 1.99863281 34.32449219 0.72363281 34.26074219 C0.73523438 35.13730469 0.74683594 36.01386719 0.75878906 36.91699219 C0.84747823 49.38415521 0.31003052 61.80914824 -0.27636719 74.26074219 C-3.50510039 74.43650644 -6.73438494 74.59937711 -9.96386719 74.76074219 C-11.27387695 74.83228516 -11.27387695 74.83228516 -12.61035156 74.90527344 C-22.8603196 75.40527188 -32.96694784 75.26074219 -43.27636719 75.26074219 C-43.27636719 51.17074219 -43.27636719 27.08074219 -43.27636719 2.26074219 C-11.79241267 -0.07140259 -11.79241267 -0.07140259 0 0 Z " fill="#FD1B1B" transform="translate(200.2763671875,17.7392578125)"/>
<path d="M0 0 C3.64952695 9.38264906 6.98947803 18.80067114 9.90673828 28.4387207 C11.33547393 33.10881924 13.05445002 37.51310831 15 42 C15.65656591 44.03173546 16.28218547 46.07375679 16.875 48.125 C18.60819576 53.94262608 20.72088379 59.52020191 23.046875 65.125 C23.99479484 67.98429919 24.07641259 70.02366681 24 73 C16.75828698 73.39464203 9.51640591 73.7860386 2.27430248 74.17345428 C-1.08959748 74.35350461 -4.45343309 74.5346129 -7.81713867 74.71826172 C-11.69695894 74.9295355 -15.57696799 75.13699257 -19.45703125 75.34375 C-20.64706253 75.40937134 -21.83709381 75.47499268 -23.06318665 75.54260254 C-30.05022758 75.91060946 -37.00344693 76.08363141 -44 76 C-44.90742783 68.684365 -45.38748924 61.37189067 -45.81622314 54.01394653 C-46.50468053 42.22649582 -47.29990427 30.4594154 -48.39038086 18.70092773 C-48.89325272 13.10654162 -49.08000742 7.61766374 -49 2 C-46.17372842 1.05790947 -44.17448089 0.81059911 -41.23046875 0.68359375 C-40.26882812 0.64161865 -39.3071875 0.59964355 -38.31640625 0.55639648 C-37.28386719 0.51716064 -36.25132813 0.4779248 -35.1875 0.4375 C-34.13046875 0.3950415 -33.0734375 0.35258301 -31.984375 0.30883789 C-21.32158797 -0.08499424 -10.66818419 -0.09450163 0 0 Z " fill="#FE2525" transform="translate(66,24)"/>
<path d="M0 0 C7.59 0 15.18 0 23 0 C23 0.33 23 0.66 23 1 C19.04 1 15.08 1 11 1 C11 25.09 11 49.18 11 74 C21.395 73.505 21.395 73.505 32 73 C36.11300371 72.9414769 40.20273694 72.89807054 44.3125 72.9375 C45.26705078 72.94201172 46.22160156 72.94652344 47.20507812 72.95117188 C49.47013265 72.96255406 51.73502141 72.97868487 54 73 C53.99476318 72.35675781 53.98952637 71.71351562 53.98413086 71.05078125 C53.89447034 58.32125757 53.95474911 45.69233218 55 33 C62.033216 32.2847577 62.033216 32.2847577 65.97265625 35.19921875 C69.38790111 40.08366328 68.60043478 46.11617239 68.4375 51.8125 C68.42879883 53.51889648 68.42879883 53.51889648 68.41992188 55.25976562 C68.32625048 61.75306694 67.96441976 67.78784142 66 74 C61.35769406 77.20779273 56.50071197 77.19300744 51 77 C45.32104794 77.28850571 45.32104794 77.28850571 40 79 C38 78.66666667 36 78.33333333 34 78 C31.32620243 77.91343821 28.6763287 77.9538564 26 78 C26 77.67 26 77.34 26 77 C19.07 76.505 19.07 76.505 12 76 C11.67 114.61 11.34 153.22 11 193 C11.66 193.33 12.32 193.66 13 194 C8.37052361 193.14310613 5.34949256 191.01765241 1.93168831 187.84289551 C-2.17137341 181.80435622 -1.15873262 174.13777972 -1.02172852 167.109375 C-1.01918769 165.28555935 -1.02061907 163.4617345 -1.02571106 161.63792419 C-1.0282877 156.70179252 -0.97547203 151.76763923 -0.91254544 146.8319664 C-0.85618629 141.66843517 -0.85098928 136.5048558 -0.84031677 131.34106445 C-0.81237187 121.56962923 -0.7385556 111.79910299 -0.64817137 102.02806759 C-0.54748579 90.90125755 -0.49806833 79.7744035 -0.45291245 68.64725113 C-0.35890326 45.76431351 -0.19883796 22.88224611 0 0 Z " fill="#C40A0A" transform="translate(146,19)"/>
<path d="M0 0 C0 0.33 0 0.66 0 1 C-23.3562148 1.91842049 -46.6056717 2 -70 2 C-70 63.05 -70 124.1 -70 187 C-71.98 185.68 -73.96 184.36 -76 183 C-76 188.61 -76 194.22 -76 200 C-76.33 200 -76.66 200 -77 200 C-77 135.32 -77 70.64 -77 4 C-86.57 4.33 -96.14 4.66 -106 5 C-126.96985619 5.21957965 -126.96985619 5.21957965 -133 4 C-132.75765625 5.14210938 -132.5153125 6.28421875 -132.265625 7.4609375 C-130.10559565 17.83365795 -128.28101393 28.21845587 -126.72070312 38.69750977 C-125.60435124 46.15799461 -124.41962687 53.60404868 -123.19140625 61.046875 C-123.03226242 62.01322372 -122.87311859 62.97957245 -122.70915222 63.97520447 C-122.0632944 67.8940341 -121.41685745 71.81274605 -120.76303101 75.73025513 C-120.30212216 78.49278974 -119.84601328 81.25608207 -119.390625 84.01953125 C-119.25020279 84.85180237 -119.10978058 85.68407349 -118.96510315 86.54156494 C-118.33231586 90.40407634 -117.8237905 94.06943912 -118 98 C-120 97 -120 97 -120.97387695 94.64599609 C-121.30863037 93.61555176 -121.64338379 92.58510742 -121.98828125 91.5234375 C-122.36259277 90.38438965 -122.7369043 89.2453418 -123.12255859 88.07177734 C-123.51523926 86.85184082 -123.90791992 85.6319043 -124.3125 84.375 C-124.71549316 83.14346191 -125.11848633 81.91192383 -125.53369141 80.64306641 C-126.33372257 78.19786443 -127.13098308 75.75175398 -127.92529297 73.3046875 C-129.22082926 69.32095755 -130.54310166 65.34668242 -131.875 61.375 C-133.58333333 56.25 -135.29166667 51.125 -137 46 C-136.01 45.505 -136.01 45.505 -135 45 C-135 31.14 -135 17.28 -135 3 C-123.04958741 2.31711928 -111.15800659 1.89389583 -99.1875 1.875 C-98.0025293 1.87048828 -96.81755859 1.86597656 -95.59667969 1.86132812 C-89.63552583 1.87151523 -83.89302813 2.08668937 -78 3 C-78 2.01 -78 1.02 -78 0 C-51.9538399 -0.94103548 -26.03996169 -1.53337314 0 0 Z " fill="#3D0B0B" transform="translate(216,17)"/>
<path d="M0 0 C3.96 0.33 7.92 0.66 12 1 C11.01 1.33 10.02 1.66 9 2 C9.11593506 3.25844727 9.23187012 4.51689453 9.35131836 5.81347656 C9.78972275 10.58442391 10.22262369 15.35585867 10.65405273 20.12744141 C10.83977918 22.1734718 11.02690237 24.219376 11.21557617 26.26513672 C12.26093372 37.61075063 13.20577187 48.93611263 13.667099 60.32244873 C13.88408226 65.51709701 14.33342441 70.64892554 14.9375 75.8125 C15.83978564 83.86418825 16.43517732 91.91353888 16.9375 100 C17.01806641 101.29478271 17.09863281 102.58956543 17.18164062 103.92358398 C17.31116426 106.0068966 17.44067375 108.09020999 17.56994629 110.17353821 C18.15624604 119.57645754 18.7899761 128.97611761 19.4375 138.375 C19.50039215 139.29010345 19.5632843 140.20520691 19.62808228 141.14804077 C20.52141611 154.06401085 21.58674578 166.95346512 22.81896973 179.84121704 C23.9349787 191.5530315 24.63531512 203.24205646 25 215 C17.14081197 205.93170612 14.1132813 198.54520235 13.6875 186.5625 C13.56906792 184.25116416 13.44809638 181.93995663 13.32421875 179.62890625 C13.2636731 178.1140564 13.2636731 178.1140564 13.2019043 176.56860352 C13.09449396 173.88195907 13.09449396 173.88195907 12 171 C11.75260972 168.03781232 11.55197892 165.08802184 11.38671875 162.12109375 C11.2744 160.25307369 11.1617549 158.38507324 11.04882812 156.51708984 C10.99025635 155.5277948 10.93168457 154.53849976 10.87133789 153.51922607 C9.83119138 136.08295874 8.49464316 118.70882641 6.74359131 101.33023071 C5.12474261 85.19408301 3.96205845 69.04384815 2.95117188 52.85888672 C2.89390427 51.95938293 2.83663666 51.05987915 2.77763367 50.13311768 C2.67113152 48.45214181 2.56790727 46.77095377 2.46858215 45.08953857 C2.24789507 41.60079599 1.85968845 38.3776608 1 35 C-0.14362764 23.35194067 -0.11436442 11.69058509 0 0 Z " fill="#D50B0B" transform="translate(8,24)"/>
<path d="M0 0 C4.29 0.33 8.58 0.66 13 1 C13.28946006 8.48477519 13.57406848 15.96971478 13.85449219 23.45483398 C13.95021614 25.99264305 14.04718661 28.53040546 14.14550781 31.06811523 C14.71222603 45.71893776 15.16376437 60.33740263 15 75 C16.18916016 74.89171875 16.18916016 74.89171875 17.40234375 74.78125 C30.04863633 73.77513611 42.15502177 74 55 74 C55 49.58 55 25.16 55 0 C55.33 0 55.66 0 56 0 C56 29.7 56 59.4 56 90 C55.67 90 55.34 90 55 90 C54.67 85.71 54.34 81.42 54 77 C41.46 77 28.92 77 16 77 C16 83.93 16 90.86 16 98 C14.12485685 94.2497137 13.74383715 92.80450807 13.55078125 88.8203125 C12.98960006 80.74370485 11.56652783 72.84145697 10.1875 64.875 C9.64174272 61.68015889 9.09978188 58.48468045 8.55859375 55.2890625 C8.42446075 54.49914917 8.29032776 53.70923584 8.15213013 52.89538574 C6.75920788 44.65320947 5.49978969 36.39221739 4.29370117 28.12060547 C3.66895088 23.92399728 3.00790717 19.80914163 1.9296875 15.703125 C0.6149004 10.46607384 0.36693276 5.38168053 0 0 Z " fill="#C70909" transform="translate(83,21)"/>
<path d="M0 0 C1.4370809 -0.05422947 2.87475462 -0.09289723 4.3125 -0.125 C5.11300781 -0.14820312 5.91351563 -0.17140625 6.73828125 -0.1953125 C9 0 9 0 12 2 C12.37231445 5.11352539 12.37231445 5.11352539 12.36328125 9.09765625 C12.36377975 9.80595078 12.36427826 10.5142453 12.36479187 11.2440033 C12.36244837 12.74790235 12.3527035 14.25180511 12.33618164 15.75561523 C12.31283874 18.02950277 12.31558692 20.302197 12.32226562 22.57617188 C12.28715684 41.45871462 12.28715684 41.45871462 7.75 46.5 C4.76734362 48.12690348 2.33686149 48.52067183 -1 49 C-1.14374476 32.63742381 -0.7838511 16.34412937 0 0 Z " fill="#B50707" transform="translate(199,125)"/>
<path d="M0 0 C8 0 8 0 10.97265625 2.19921875 C14.38790111 7.08366328 13.60043478 13.11617239 13.4375 18.8125 C13.43169922 19.95009766 13.42589844 21.08769531 13.41992188 22.25976562 C13.32632008 28.74824194 12.99430069 34.80046464 11 41 C7.31109445 43.78550011 5.06951869 43 0 43 C0 28.81 0 14.62 0 0 Z " fill="#B50707" transform="translate(201,52)"/>
<path d="M0 0 C3.9405606 5.9108409 4.61824353 13.01581458 5.7265625 19.9140625 C5.87910492 20.84672943 6.03164734 21.77939636 6.18881226 22.74032593 C6.50846134 24.7015505 6.82602227 26.66311644 7.14160156 28.625 C7.62474625 31.6234252 8.11660652 34.6203306 8.609375 37.6171875 C8.91979329 39.52856106 9.22970651 41.44001672 9.5390625 43.3515625 C9.75932602 44.69077255 9.75932602 44.69077255 9.98403931 46.05703735 C10.62508808 50.07490412 11.1966136 53.91527353 11 58 C9 57 9 57 8.02612305 54.64599609 C7.52399292 53.10032959 7.52399292 53.10032959 7.01171875 51.5234375 C6.45025146 49.81486572 6.45025146 49.81486572 5.87744141 48.07177734 C5.48476074 46.85184082 5.09208008 45.6319043 4.6875 44.375 C4.28450684 43.14346191 3.88151367 41.91192383 3.46630859 40.64306641 C2.66627743 38.19786443 1.86901692 35.75175398 1.07470703 33.3046875 C-0.22082926 29.32095755 -1.54310166 25.34668242 -2.875 21.375 C-4.58333333 16.25 -6.29166667 11.125 -8 6 C-6.6875 4.5 -6.6875 4.5 -5 3 C-4.01 3 -3.02 3 -2 3 C-1.34 2.01 -0.68 1.02 0 0 Z " fill="#2E0707" transform="translate(87,57)"/>
<path d="M0 0 C2 1 2 1 3 3.4375 C3.75476176 6.12633877 4.36178163 8.70803446 4.88671875 11.44140625 C6.07984542 17.48801356 7.43095076 23.49396217 8.8125 29.5 C9.07240723 30.63405273 9.33231445 31.76810547 9.60009766 32.93652344 C11.35441367 40.48979886 13.2701001 47.9728919 15.52661133 55.39257812 C16.70434655 59.37711101 17.21927699 62.84663584 17 67 C16.505 66.01 16.505 66.01 16 65 C15.34 65 14.68 65 14 65 C13.69707031 63.99582031 13.39414063 62.99164063 13.08203125 61.95703125 C10.39200418 53.14110351 7.40850173 44.56994722 4 36 C3.67 40.95 3.34 45.9 3 51 C2.67 51 2.34 51 2 51 C1.97494385 50.08299316 1.9498877 49.16598633 1.92407227 48.22119141 C1.82813712 44.77318225 1.72896017 41.32529633 1.62768555 37.87744141 C1.5847477 36.39375369 1.54304988 34.91002949 1.50268555 33.42626953 C1.29747572 25.91204285 1.05203051 18.44309187 0.20727539 10.96728516 C-0.17878876 7.30308616 -0.05933903 3.67902001 0 0 Z " fill="#330707" transform="translate(71,145)"/>
<path d="M0 0 C2.92454891 3.38978159 4.25573185 7.05111365 5.63671875 11.23828125 C5.87745117 11.94795547 6.11818359 12.6576297 6.36621094 13.3888092 C7.14677297 15.69447492 7.9171906 18.00339101 8.6875 20.3125 C9.22230245 21.89885692 9.75786951 23.48495626 10.29418945 25.07080078 C11.10005459 27.45397862 11.90539925 29.83731619 12.70793152 32.22161865 C15.29127592 39.89268064 17.96556333 47.53053882 20.67651367 55.1574707 C22.05635024 59.08233082 23.36280699 62.87098932 24 67 C22.91481889 66.08552154 21.83195262 65.16829593 20.75 64.25 C20.14671875 63.73953125 19.5434375 63.2290625 18.921875 62.703125 C18.28765625 62.14109375 17.6534375 61.5790625 17 61 C15.93652344 60.08734375 15.93652344 60.08734375 14.8515625 59.15625 C12.56449628 56.49283111 12.21705657 54.69937305 11.625 51.25 C10.32588643 44.45627495 8.75486447 37.76927772 7.0625 31.0625 C6.80275391 30.02673828 6.54300781 28.99097656 6.27539062 27.92382812 C4.49637276 20.86571966 2.63197999 13.83583117 0.6640625 6.828125 C0 4 0 4 0 0 Z " fill="#C30A0A" transform="translate(75,156)"/>
<path d="M0 0 C0.33 0 0.66 0 1 0 C1 36.63 1 73.26 1 111 C-0.98 109.68 -2.96 108.36 -5 107 C-5 112.61 -5 118.22 -5 124 C-5.33 124 -5.66 124 -6 124 C-6 97.27 -6 70.54 -6 43 C-5.67 43 -5.34 43 -5 43 C-5 63.46 -5 83.92 -5 105 C-3.02 104.01 -3.02 104.01 -1 103 C-0.67 69.01 -0.34 35.02 0 0 Z " fill="#610D0D" transform="translate(145,93)"/>
<path d="M0 0 C1.00732178 0.00644531 2.01464355 0.01289063 3.05249023 0.01953125 C13.13061403 0.12062049 23.19016596 0.59512281 33.25 1.1875 C33.25 1.5175 33.25 1.8475 33.25 2.1875 C9.89883498 3.10572192 -13.37779599 3.27342722 -36.75 3.1875 C-36.75 27.2775 -36.75 51.3675 -36.75 76.1875 C-37.08 76.1875 -37.41 76.1875 -37.75 76.1875 C-37.75 51.7675 -37.75 27.3475 -37.75 2.1875 C-8.82559381 -0.12645249 -8.82559381 -0.12645249 0 0 Z " fill="#560909" transform="translate(182.75,15.8125)"/>
<path d="M0 0 C0.33 0 0.66 0 1 0 C1 29.7 1 59.4 1 90 C0.67 90 0.34 90 0 90 C-0.33 85.71 -0.66 81.42 -1 77 C-13.54 77 -26.08 77 -39 77 C-39 83.93 -39 90.86 -39 98 C-40.90017822 94.19964356 -41.24092197 93.36564509 -40.9765625 89.453125 C-40.925 88.60878906 -40.8734375 87.76445313 -40.8203125 86.89453125 C-40.75585938 86.02183594 -40.69140625 85.14914063 -40.625 84.25 C-40.56828125 83.36183594 -40.5115625 82.47367187 -40.453125 81.55859375 C-40.31202454 79.37153668 -40.1606567 77.1856931 -40 75 C-26.60971662 73.78072216 -13.5314262 74 0 74 C0 49.58 0 25.16 0 0 Z " fill="#BB1616" transform="translate(138,21)"/>
<path d="M0 0 C0.33 0 0.66 0 1 0 C1 8.91 1 17.82 1 27 C1.99 27.33 2.98 27.66 4 28 C3.030625 27.979375 2.06125 27.95875 1.0625 27.9375 C-6.69933204 27.85861073 -6.69933204 27.85861073 -14 30 C-16 29.66666667 -18 29.33333333 -20 29 C-22.67379757 28.91343821 -25.3236713 28.9538564 -28 29 C-28 28.67 -28 28.34 -28 28 C-34.93 27.505 -34.93 27.505 -42 27 C-42.33 27.66 -42.66 28.32 -43 29 C-43 27.68 -43 26.36 -43 25 C-28.64285931 24.17791423 -14.38212081 23.90721212 0 24 C0 16.08 0 8.16 0 0 Z " fill="#C81515" transform="translate(200,68)"/>
<path d="M0 0 C0.33 0.99 0.66 1.98 1 3 C2.0415625 2.84660156 3.083125 2.69320312 4.15625 2.53515625 C10.24800093 1.77368738 16.36922886 1.64298189 22.5 1.4375 C23.70398438 1.39431641 24.90796875 1.35113281 26.1484375 1.30664062 C29.09886193 1.20126832 32.04936071 1.09914097 35 1 C34.01 2.98 33.02 4.96 32 7 C31.34 6.67 30.68 6.34 30 6 C26.84419893 6.35064456 23.81216568 6.77439842 20.75 7.625 C19 8 19 8 16 7 C13.99654633 7.08625981 11.99550257 7.23941702 10 7.4375 C5.04617915 7.91709785 0.88103602 8.05535914 -4 7 C-3.01 6.34 -2.02 5.68 -1 5 C-0.27034634 2.43717258 -0.27034634 2.43717258 0 0 Z " fill="#D21414" transform="translate(212,88)"/>
<path d="M0 0 C0 0.33 0 0.66 0 1 C-12.85666929 1.75548109 -25.68601331 2.10836591 -38.5625 2.125 C-39.5841777 2.12874634 -39.5841777 2.12874634 -40.62649536 2.13256836 C-42.58562342 2.13847584 -44.54477155 2.13579161 -46.50390625 2.1328125 C-47.63642822 2.13168457 -48.7689502 2.13055664 -49.93579102 2.12939453 C-52.7411719 2.01092972 -55.27191253 1.64059323 -58 1 C-58 3.97 -58 6.94 -58 10 C-58.33 10 -58.66 10 -59 10 C-59 6.7 -59 3.4 -59 0 C-13.668107 -3.37186781 -13.668107 -3.37186781 0 0 Z " fill="#6B0B0B" transform="translate(66,23)"/>
<path d="M0 0 C0.66 0 1.32 0 2 0 C2.00410889 1.19077148 2.00821777 2.38154297 2.01245117 3.60839844 C2.03423471 8.02941076 2.08851595 12.44953208 2.15258789 16.87011719 C2.17577476 18.78279069 2.19016523 20.69559199 2.19555664 22.60839844 C2.20484137 25.35953474 2.24581927 28.10865912 2.29296875 30.859375 C2.28706978 32.14083405 2.28706978 32.14083405 2.28105164 33.44818115 C2.38231715 38.5803609 2.38231715 38.5803609 5.54418945 42.57128906 C6.75981567 43.27850098 6.75981567 43.27850098 8 44 C7 47 7 47 4.625 48.1875 C2 49 2 49 -1 49 C-1.14374476 32.63742381 -0.7838511 16.34412937 0 0 Z " fill="#440707" transform="translate(199,125)"/>
<path d="M0 0 C0.99 1.98 0.99 1.98 2 4 C1.01 3.7215625 1.01 3.7215625 0 3.4375 C-3.05347055 2.99220221 -5.56009529 3.31783754 -8.59521484 3.72631836 C-13.31770817 4.26377166 -18.06514146 4.38785401 -22.8125 4.5625 C-23.92802246 4.6049585 -25.04354492 4.64741699 -26.19287109 4.69116211 C-38.7938924 5.12722308 -51.39336853 5.09683657 -64 5 C-64 4.67 -64 4.34 -64 4 C-57.31433003 2.8693666 -50.61317271 2.58395734 -43.84765625 2.24609375 C-42.59238632 2.18092056 -41.33711639 2.11574738 -40.04380798 2.04859924 C-36.72808399 1.87701329 -33.41224437 1.70815706 -30.09631348 1.54064941 C-26.70406373 1.36860386 -23.31200188 1.19293287 -19.91992188 1.01757812 C-13.2801151 0.67506331 -6.64013192 0.33614923 0 0 Z " fill="#D51B1B" transform="translate(90,96)"/>
<path d="M0 0 C-3.86688682 1.71942247 -7.50866398 2.55376546 -11.6875 3.1875 C-12.82574219 3.36667969 -13.96398437 3.54585938 -15.13671875 3.73046875 C-18 4 -18 4 -20 3 C-21.64442354 3.23370839 -23.28834333 3.47204271 -24.92825317 3.73556519 C-28.75128153 4.22353108 -32.58545215 4.12133392 -36.43359375 4.09765625 C-37.7504995 4.09553383 -37.7504995 4.09553383 -39.0940094 4.09336853 C-41.87520882 4.08780821 -44.65632526 4.07526321 -47.4375 4.0625 C-49.33268112 4.05747987 -51.22786352 4.05291786 -53.12304688 4.04882812 C-57.74872948 4.0378518 -62.37435071 4.02061482 -67 4 C-67 3.01 -67 2.02 -67 1 C-66.22736816 1.00523682 -65.45473633 1.01047363 -64.65869141 1.01586914 C-50.63858676 1.09763411 -36.63770288 1.09956868 -22.625 0.5625 C-21.57006348 0.52326416 -20.51512695 0.48402832 -19.42822266 0.44360352 C-15.06964399 0.25967192 -10.78184628 0.01442337 -6.4609375 -0.59765625 C-3 -1 -3 -1 0 0 Z " fill="#E91F1F" transform="translate(90,99)"/>
<path d="M0 0 C1.40885258 0.00502467 2.81770689 0.00958587 4.2265625 0.01367188 C7.65108638 0.0253997 11.07552047 0.04181309 14.5 0.0625 C14.5 1.3825 14.5 2.7025 14.5 4.0625 C13.6646875 3.95421875 13.6646875 3.95421875 12.8125 3.84375 C3.56716723 2.59768085 3.56716723 2.59768085 -5.5 4.0625 C-6.593125 3.876875 -7.68625 3.69125 -8.8125 3.5 C-12.80241508 3.02662024 -14.77598089 3.76718901 -18.5 5.0625 C-21.375 4.6875 -21.375 4.6875 -23.5 4.0625 C-23.5 3.0725 -23.5 2.0825 -23.5 1.0625 C-15.69196105 -0.21536205 -7.88637319 -0.04908147 0 0 Z " fill="#E61B1B" transform="translate(122.5,96.9375)"/>
<path d="M0 0 C0.66 0 1.32 0 2 0 C2 12.21 2 24.42 2 37 C2.99 37.33 3.98 37.66 5 38 C5.33 38.99 5.66 39.98 6 41 C5.505 41.495 5.505 41.495 5 42 C3.35 42 1.7 42 0 42 C0 28.14 0 14.28 0 0 Z " fill="#320707" transform="translate(201,53)"/>
<path d="M0 0 C3.36191772 3.74441135 4.59883996 8.05648269 6.125 12.75 C6.38925781 13.5234375 6.65351562 14.296875 6.92578125 15.09375 C8.57369488 20.07931611 9.51056455 24.77139695 10 30 C9.34 30 8.68 30 8 30 C7.67 30.66 7.34 31.32 7 32 C6.01780092 27.79236851 5.03977716 23.58377715 4.0625 19.375 C3.78470703 18.18519531 3.50691406 16.99539062 3.22070312 15.76953125 C2.95322266 14.61582031 2.68574219 13.46210938 2.41015625 12.2734375 C2.04096069 10.68668213 2.04096069 10.68668213 1.66430664 9.06787109 C1.01208748 6.05582185 0.48068838 3.04369486 0 0 Z " fill="#B20808" transform="translate(75,156)"/>
<path d="M0 0 C0.75780762 -0.01289063 1.51561523 -0.02578125 2.29638672 -0.0390625 C6.1963092 -0.04611321 8.79966719 0.29767258 12.1875 2.1875 C-16.17042096 3.58777356 -16.17042096 3.58777356 -26.8125 2.1875 C-26.8125 1.8575 -26.8125 1.5275 -26.8125 1.1875 C-17.87867723 0.55421636 -8.95774356 0.0736808 0 0 Z " fill="#3B0606" transform="translate(46.8125,20.8125)"/>
<path d="M0 0 C0.33 0.66 0.66 1.32 1 2 C1.99 1.67 2.98 1.34 4 1 C4.79822348 10.37912587 5.12873737 19.58786748 5 29 C4.67 29 4.34 29 4 29 C3.32821737 24.91749118 2.66346058 20.83386883 2 16.75 C1.80921875 15.59113281 1.6184375 14.43226562 1.421875 13.23828125 C1.24140625 12.12324219 1.0609375 11.00820312 0.875 9.859375 C0.70742187 8.83295898 0.53984375 7.80654297 0.3671875 6.74902344 C0 4 0 4 0 0 Z " fill="#A80303" transform="translate(93,81)"/>
<path d="M0 0 C4.62 0 9.24 0 14 0 C11 4 11 4 9.25 4.875 C5.92581872 5.05967674 3.13576322 4.02515336 0 3 C0 6.3 0 9.6 0 13 C-0.33 13 -0.66 13 -1 13 C-1.02696365 11.20841511 -1.04637917 9.41671527 -1.0625 7.625 C-1.07410156 6.62726563 -1.08570313 5.62953125 -1.09765625 4.6015625 C-1 2 -1 2 0 0 Z " fill="#EA1919" transform="translate(158,95)"/>
<path d="M0 0 C0 0.99 0 1.98 0 3 C-0.53496094 2.82597656 -1.06992188 2.65195313 -1.62109375 2.47265625 C-4.56724331 1.88729648 -7.07692569 2.13783269 -10.0625 2.4375 C-14.99561427 2.91922562 -19.13840524 3.05115562 -24 2 C-17.56232387 -2.29178408 -7.43474559 -1.59315977 0 0 Z " fill="#E21616" transform="translate(232,93)"/>
<path d="M0 0 C6.8359375 -0.29296875 6.8359375 -0.29296875 9 0 C9.66 0.99 10.32 1.98 11 3 C9.39125 3.0928125 9.39125 3.0928125 7.75 3.1875 C3.86468039 3.66145959 3.86468039 3.66145959 1.5625 6.5625 C1.046875 7.366875 0.53125 8.17125 0 9 C0 6.03 0 3.06 0 0 Z " fill="#930606" transform="translate(146,92)"/>
<path d="M0 0 C0.33 0 0.66 0 1 0 C1.01417969 0.81984375 1.02835938 1.6396875 1.04296875 2.484375 C1.12366142 9.24887858 1.12366142 9.24887858 4.5625 14.75 C5.366875 15.1625 6.17125 15.575 7 16 C6.67 16.99 6.34 17.98 6 19 C5.01 19.33 4.02 19.66 3 20 C2.67 18.02 2.34 16.04 2 14 C1.34 14 0.68 14 0 14 C0 9.38 0 4.76 0 0 Z " fill="#750505" transform="translate(200,153)"/>
<path d="M0 0 C2 1 2 1 3.1875 3.8125 C4.02614808 7.10258091 3.99803059 7.91517818 3 11 C2.60955852 13.66116693 2.31173014 16.32802733 2 19 C1.67 19 1.34 19 1 19 C0.25492456 12.62694402 -0.10349817 6.41688675 0 0 Z " fill="#670B0B" transform="translate(71,145)"/>
<path d="M0 0 C0.99 0.99 1.98 1.98 3 3 C2.67 3.99 2.34 4.98 2 6 C1.85507877 7.40664926 1.75371069 8.8181133 1.68359375 10.23046875 C1.64169922 11.03291016 1.59980469 11.83535156 1.55664062 12.66210938 C1.51732422 13.49548828 1.47800781 14.32886719 1.4375 15.1875 C1.39431641 16.03248047 1.35113281 16.87746094 1.30664062 17.74804688 C1.20068482 19.83184433 1.0998498 21.91590103 1 24 C0.67 24 0.34 24 0 24 C0 16.08 0 8.16 0 0 Z " fill="#4E0B0B" transform="translate(73,172)"/>
<path d="M0 0 C2.64 0.99 5.28 1.98 8 3 C8 3.33 8 3.66 8 4 C5.69 4 3.38 4 1 4 C1 6.31 1 8.62 1 11 C0.67 11 0.34 11 0 11 C0 7.37 0 3.74 0 0 Z " fill="#8D0707" transform="translate(13,96)"/>
<path d="M0 0 C2.66666667 0.66666667 5.33333333 1.33333333 8 2 C7.34 3.32 6.68 4.64 6 6 C5.01 6 4.02 6 3 6 C2.67 5.01 2.34 4.02 2 3 C1.34 2.67 0.68 2.34 0 2 C0 1.34 0 0.68 0 0 Z " fill="#7E0505" transform="translate(203,88)"/>
<path d="M0 0 C0.33 0 0.66 0 1 0 C1 1.65 1 3.3 1 5 C1.99 5.33 2.98 5.66 4 6 C4.33 6.99 4.66 7.98 5 9 C3.68 9.33 2.36 9.66 1 10 C-0.60725635 6.78548731 -0.05748185 3.56387464 0 0 Z " fill="#540303" transform="translate(202,85)"/>
<path d="M0 0 C0.33 0 0.66 0 1 0 C1.33 3.96 1.66 7.92 2 12 C1.34 11.67 0.68 11.34 0 11 C-1.27368421 3.82105263 -1.27368421 3.82105263 0 0 Z " fill="#4B0404" transform="translate(96,103)"/>
<path d="M0 0 C0.33 0.99 0.66 1.98 1 3 C-2.28696233 3.79953138 -3.71023192 4.09658936 -7 3 C-7 2.34 -7 1.68 -7 1 C-3.535 0.505 -3.535 0.505 0 0 Z " fill="#BA0909" transform="translate(21,99)"/>
<path d="M0 0 C1.98 0 3.96 0 6 0 C5.38125 0.598125 4.7625 1.19625 4.125 1.8125 C1.86323046 4.00811144 1.86323046 4.00811144 0 7 C0 4.69 0 2.38 0 0 Z " fill="#A10808" transform="translate(146,94)"/>
</svg>
