<svg xmlns="http://www.w3.org/2000/svg" xmlns:xlink="http://www.w3.org/1999/xlink" width="1080" zoomAndPan="magnify" viewBox="0 0 810 809.999993" height="1080" preserveAspectRatio="xMidYMid meet" version="1.0"><defs><filter x="0%" y="0%" width="100%" height="100%" id="82e27c6790"><feColorMatrix values="0 0 0 0 1 0 0 0 0 1 0 0 0 0 1 0 0 0 1 0" color-interpolation-filters="sRGB"/></filter><g/><clipPath id="57d11412bc"><path d="M 17.070312 443.46875 L 793 443.46875 L 793 778.957031 L 17.070312 778.957031 Z M 17.070312 443.46875 " clip-rule="nonzero"/></clipPath><clipPath id="429f0e3497"><path d="M 405 443.46875 C 190.75 443.46875 17.070312 518.570312 17.070312 611.214844 C 17.070312 703.855469 190.75 778.957031 405 778.957031 C 619.25 778.957031 792.929688 703.855469 792.929688 611.214844 C 792.929688 518.570312 619.25 443.46875 405 443.46875 Z M 405 443.46875 " clip-rule="nonzero"/></clipPath><mask id="cd85ab7a90"><g filter="url(#82e27c6790)"><rect x="-81" width="972" fill="#000000" y="-80.999999" height="971.999992" fill-opacity="0.3"/></g></mask><clipPath id="d8cc198873"><path d="M 0.0703125 0.683594 L 776 0.683594 L 776 336.171875 L 0.0703125 336.171875 Z M 0.0703125 0.683594 " clip-rule="nonzero"/></clipPath><clipPath id="cd301fb2b0"><path d="M 388 0.683594 C 173.75 0.683594 0.0703125 75.785156 0.0703125 168.425781 C 0.0703125 261.070312 173.75 336.171875 388 336.171875 C 602.25 336.171875 775.929688 261.070312 775.929688 168.425781 C 775.929688 75.785156 602.25 0.683594 388 0.683594 Z M 388 0.683594 " clip-rule="nonzero"/></clipPath><clipPath id="c317ab14af"><rect x="0" width="778" y="0" height="337"/></clipPath><clipPath id="98c2aca0ca"><path d="M 17.070312 336.148438 L 793 336.148438 L 793 671.636719 L 17.070312 671.636719 Z M 17.070312 336.148438 " clip-rule="nonzero"/></clipPath><clipPath id="cd50ecb414"><path d="M 405 336.148438 C 190.75 336.148438 17.070312 411.25 17.070312 503.894531 C 17.070312 596.535156 190.75 671.636719 405 671.636719 C 619.25 671.636719 792.929688 596.535156 792.929688 503.894531 C 792.929688 411.25 619.25 336.148438 405 336.148438 Z M 405 336.148438 " clip-rule="nonzero"/></clipPath><mask id="9992298b94"><g filter="url(#82e27c6790)"><rect x="-81" width="972" fill="#000000" y="-80.999999" height="971.999992" fill-opacity="0.3"/></g></mask><clipPath id="a018e1192d"><path d="M 0.0703125 0.664062 L 776 0.664062 L 776 336.152344 L 0.0703125 336.152344 Z M 0.0703125 0.664062 " clip-rule="nonzero"/></clipPath><clipPath id="b53bf0f023"><path d="M 388 0.664062 C 173.75 0.664062 0.0703125 75.765625 0.0703125 168.410156 C 0.0703125 261.050781 173.75 336.152344 388 336.152344 C 602.25 336.152344 775.929688 261.050781 775.929688 168.410156 C 775.929688 75.765625 602.25 0.664062 388 0.664062 Z M 388 0.664062 " clip-rule="nonzero"/></clipPath><clipPath id="b70965c029"><rect x="0" width="778" y="0" height="337"/></clipPath><clipPath id="f97d285e3e"><path d="M 17.070312 237.257812 L 793 237.257812 L 793 572.742188 L 17.070312 572.742188 Z M 17.070312 237.257812 " clip-rule="nonzero"/></clipPath><clipPath id="6381ce50a4"><path d="M 405 237.257812 C 190.75 237.257812 17.070312 312.359375 17.070312 405 C 17.070312 497.640625 190.75 572.742188 405 572.742188 C 619.25 572.742188 792.929688 497.640625 792.929688 405 C 792.929688 312.359375 619.25 237.257812 405 237.257812 Z M 405 237.257812 " clip-rule="nonzero"/></clipPath><mask id="47d57d4dcf"><g filter="url(#82e27c6790)"><rect x="-81" width="972" fill="#000000" y="-80.999999" height="971.999992" fill-opacity="0.3"/></g></mask><clipPath id="f9a5a7cba7"><path d="M 0.0703125 0.40625 L 776 0.40625 L 776 335.894531 L 0.0703125 335.894531 Z M 0.0703125 0.40625 " clip-rule="nonzero"/></clipPath><clipPath id="2cbe4b8c6c"><path d="M 388 0.40625 C 173.75 0.40625 0.0703125 75.507812 0.0703125 168.148438 C 0.0703125 260.792969 173.75 335.894531 388 335.894531 C 602.25 335.894531 775.929688 260.792969 775.929688 168.148438 C 775.929688 75.507812 602.25 0.40625 388 0.40625 Z M 388 0.40625 " clip-rule="nonzero"/></clipPath><clipPath id="b54285ddc2"><rect x="0" width="778" y="0" height="336"/></clipPath><clipPath id="17a62a0933"><path d="M 17.070312 115.714844 L 793 115.714844 L 793 451.203125 L 17.070312 451.203125 Z M 17.070312 115.714844 " clip-rule="nonzero"/></clipPath><clipPath id="34441ca2c3"><path d="M 405 115.714844 C 190.75 115.714844 17.070312 190.816406 17.070312 283.457031 C 17.070312 376.101562 190.75 451.203125 405 451.203125 C 619.25 451.203125 792.929688 376.101562 792.929688 283.457031 C 792.929688 190.816406 619.25 115.714844 405 115.714844 Z M 405 115.714844 " clip-rule="nonzero"/></clipPath></defs><rect x="-81" width="972" fill="#ffffff" y="-80.999999" height="971.999992" fill-opacity="1"/><rect x="-81" width="972" fill="#000000" y="-80.999999" height="971.999992" fill-opacity="1"/><g fill="#ffffff" fill-opacity="1"><g transform="translate(343.658655, 791.204044)"><g><path d="M 1.5 0 L 1.5 -5.921875 L 0.328125 -5.921875 L 0.328125 -6.75 L 1.5 -6.75 C 1.425781 -7.039062 1.390625 -7.316406 1.390625 -7.578125 C 1.390625 -8.015625 1.484375 -8.382812 1.671875 -8.6875 C 1.859375 -8.988281 2.113281 -9.210938 2.4375 -9.359375 C 2.769531 -9.503906 3.15625 -9.578125 3.59375 -9.578125 C 4.257812 -9.578125 4.773438 -9.429688 5.140625 -9.140625 L 4.75 -8.4375 L 4.625 -8.421875 C 4.351562 -8.628906 4.007812 -8.734375 3.59375 -8.734375 C 3.195312 -8.734375 2.894531 -8.628906 2.6875 -8.421875 C 2.488281 -8.222656 2.390625 -7.9375 2.390625 -7.5625 C 2.390625 -7.332031 2.425781 -7.0625 2.5 -6.75 L 4.640625 -6.75 L 4.640625 -5.921875 L 2.5 -5.921875 L 2.5 0 Z M 1.5 0 "/></g></g></g><g fill="#ffffff" fill-opacity="1"><g transform="translate(348.382558, 791.204044)"><g><path d="M 3.875 0.125 C 3.238281 0.125 2.679688 -0.00390625 2.203125 -0.265625 C 1.734375 -0.535156 1.367188 -0.929688 1.109375 -1.453125 C 0.859375 -1.984375 0.734375 -2.625 0.734375 -3.375 C 0.734375 -4.113281 0.859375 -4.742188 1.109375 -5.265625 C 1.367188 -5.796875 1.734375 -6.195312 2.203125 -6.46875 C 2.679688 -6.738281 3.238281 -6.875 3.875 -6.875 C 4.507812 -6.875 5.0625 -6.738281 5.53125 -6.46875 C 6 -6.195312 6.359375 -5.796875 6.609375 -5.265625 C 6.867188 -4.742188 7 -4.113281 7 -3.375 C 7 -2.625 6.867188 -1.984375 6.609375 -1.453125 C 6.359375 -0.929688 6 -0.535156 5.53125 -0.265625 C 5.0625 -0.00390625 4.507812 0.125 3.875 0.125 Z M 3.875 -0.765625 C 4.539062 -0.765625 5.050781 -0.972656 5.40625 -1.390625 C 5.769531 -1.816406 5.953125 -2.476562 5.953125 -3.375 C 5.953125 -4.257812 5.769531 -4.914062 5.40625 -5.34375 C 5.050781 -5.769531 4.539062 -5.984375 3.875 -5.984375 C 3.195312 -5.984375 2.675781 -5.769531 2.3125 -5.34375 C 1.957031 -4.914062 1.78125 -4.257812 1.78125 -3.375 C 1.78125 -2.476562 1.957031 -1.816406 2.3125 -1.390625 C 2.675781 -0.972656 3.195312 -0.765625 3.875 -0.765625 Z M 3.875 -0.765625 "/></g></g></g><g fill="#ffffff" fill-opacity="1"><g transform="translate(356.119267, 791.204044)"><g><path d="M 2.6875 0.125 C 2.207031 0.125 1.832031 -0.0078125 1.5625 -0.28125 C 1.289062 -0.550781 1.15625 -0.953125 1.15625 -1.484375 L 1.15625 -9.453125 L 2.140625 -9.453125 L 2.140625 -1.5625 C 2.140625 -1.28125 2.191406 -1.078125 2.296875 -0.953125 C 2.410156 -0.828125 2.582031 -0.765625 2.8125 -0.765625 C 2.945312 -0.765625 3.085938 -0.785156 3.234375 -0.828125 L 3.3125 -0.8125 L 3.4375 -0.03125 C 3.363281 0.0195312 3.257812 0.0546875 3.125 0.078125 C 2.988281 0.109375 2.84375 0.125 2.6875 0.125 Z M 2.6875 0.125 "/></g></g></g><g fill="#ffffff" fill-opacity="1"><g transform="translate(359.785954, 791.204044)"><g><path d="M 3.5 0.125 C 2.957031 0.125 2.476562 0 2.0625 -0.25 C 1.644531 -0.507812 1.316406 -0.898438 1.078125 -1.421875 C 0.847656 -1.953125 0.734375 -2.601562 0.734375 -3.375 C 0.734375 -4.132812 0.851562 -4.773438 1.09375 -5.296875 C 1.34375 -5.828125 1.679688 -6.222656 2.109375 -6.484375 C 2.546875 -6.742188 3.046875 -6.875 3.609375 -6.875 C 4.054688 -6.875 4.457031 -6.785156 4.8125 -6.609375 C 5.175781 -6.441406 5.488281 -6.164062 5.75 -5.78125 L 5.875 -5.8125 L 5.875 -9.453125 L 6.875 -9.453125 L 6.875 0 L 5.875 0 L 5.875 -0.984375 L 5.75 -1.015625 C 5.53125 -0.671875 5.226562 -0.394531 4.84375 -0.1875 C 4.46875 0.0195312 4.019531 0.125 3.5 0.125 Z M 3.8125 -0.765625 C 4.4375 -0.765625 4.9375 -0.976562 5.3125 -1.40625 C 5.6875 -1.832031 5.875 -2.488281 5.875 -3.375 C 5.875 -4.25 5.6875 -4.898438 5.3125 -5.328125 C 4.9375 -5.765625 4.4375 -5.984375 3.8125 -5.984375 C 3.15625 -5.984375 2.648438 -5.769531 2.296875 -5.34375 C 1.953125 -4.925781 1.78125 -4.269531 1.78125 -3.375 C 1.78125 -1.632812 2.457031 -0.765625 3.8125 -0.765625 Z M 3.8125 -0.765625 "/></g></g></g><g fill="#ffffff" fill-opacity="1"><g transform="translate(367.834332, 791.204044)"><g><path d="M 6.421875 -3.140625 L 1.796875 -3.140625 C 1.816406 -2.316406 2.007812 -1.710938 2.375 -1.328125 C 2.738281 -0.953125 3.238281 -0.765625 3.875 -0.765625 C 4.363281 -0.765625 4.753906 -0.847656 5.046875 -1.015625 C 5.335938 -1.191406 5.566406 -1.460938 5.734375 -1.828125 L 5.859375 -1.828125 L 6.515625 -1.4375 C 6.316406 -0.945312 6 -0.5625 5.5625 -0.28125 C 5.132812 -0.0078125 4.570312 0.125 3.875 0.125 C 3.226562 0.125 2.671875 0 2.203125 -0.25 C 1.734375 -0.507812 1.367188 -0.898438 1.109375 -1.421875 C 0.859375 -1.941406 0.734375 -2.59375 0.734375 -3.375 C 0.734375 -4.132812 0.867188 -4.773438 1.140625 -5.296875 C 1.410156 -5.828125 1.773438 -6.222656 2.234375 -6.484375 C 2.691406 -6.742188 3.21875 -6.875 3.8125 -6.875 C 4.675781 -6.875 5.347656 -6.628906 5.828125 -6.140625 C 6.316406 -5.648438 6.566406 -4.925781 6.578125 -3.96875 C 6.578125 -3.59375 6.566406 -3.34375 6.546875 -3.21875 Z M 5.59375 -3.96875 C 5.570312 -4.6875 5.410156 -5.207031 5.109375 -5.53125 C 4.804688 -5.863281 4.375 -6.03125 3.8125 -6.03125 C 3.226562 -6.03125 2.765625 -5.863281 2.421875 -5.53125 C 2.085938 -5.207031 1.882812 -4.6875 1.8125 -3.96875 Z M 5.59375 -3.96875 "/></g></g></g><g fill="#ffffff" fill-opacity="1"><g transform="translate(375.021038, 791.204044)"><g><path d="M 1.171875 0 L 1.171875 -6.734375 L 2.125 -6.734375 L 2.125 -5.6875 L 2.25 -5.65625 C 2.5625 -6.414062 3.148438 -6.796875 4.015625 -6.796875 C 4.484375 -6.796875 4.828125 -6.710938 5.046875 -6.546875 L 4.796875 -5.703125 L 4.671875 -5.6875 C 4.421875 -5.8125 4.144531 -5.875 3.84375 -5.875 C 3.300781 -5.875 2.882812 -5.671875 2.59375 -5.265625 C 2.3125 -4.859375 2.171875 -4.207031 2.171875 -3.3125 L 2.171875 0 Z M 1.171875 0 "/></g></g></g><g fill="#ffffff" fill-opacity="1"><g transform="translate(378.950309, 791.204044)"><g><path d="M 5.390625 1.421875 L 0 1.421875 L 0 0.59375 L 5.390625 0.59375 Z M 5.390625 1.421875 "/></g></g></g><g fill="#ffffff" fill-opacity="1"><g transform="translate(383.820812, 791.204044)"><g><path d="M 4.5625 -1.0625 L 4.875 -0.359375 C 4.71875 -0.191406 4.507812 -0.0703125 4.25 0 C 3.988281 0.0820312 3.707031 0.125 3.40625 0.125 C 2.125 0.125 1.484375 -0.523438 1.484375 -1.828125 L 1.484375 -5.921875 L 0.3125 -5.921875 L 0.3125 -6.75 L 1.484375 -6.75 L 1.484375 -8.171875 L 2.46875 -8.328125 L 2.46875 -6.75 L 4.640625 -6.75 L 4.640625 -5.921875 L 2.46875 -5.921875 L 2.46875 -1.921875 C 2.46875 -1.148438 2.804688 -0.765625 3.484375 -0.765625 C 3.847656 -0.765625 4.164062 -0.863281 4.4375 -1.0625 Z M 4.5625 -1.0625 "/></g></g></g><g fill="#ffffff" fill-opacity="1"><g transform="translate(388.954173, 791.204044)"><g><path d="M 1.34375 2.859375 C 1.125 2.859375 0.914062 2.835938 0.71875 2.796875 C 0.519531 2.765625 0.347656 2.710938 0.203125 2.640625 L 0.390625 1.859375 L 0.5 1.8125 C 0.59375 1.863281 0.710938 1.90625 0.859375 1.9375 C 1.003906 1.976562 1.15625 2 1.3125 2 C 1.582031 2 1.804688 1.957031 1.984375 1.875 C 2.171875 1.800781 2.328125 1.679688 2.453125 1.515625 C 2.578125 1.347656 2.695312 1.113281 2.8125 0.8125 L 3.046875 0.15625 L 0.34375 -6.734375 L 1.421875 -6.734375 L 3.53125 -1.234375 L 3.65625 -1.234375 L 5.703125 -6.734375 L 6.734375 -6.734375 L 3.71875 1.0625 C 3.539062 1.488281 3.347656 1.832031 3.140625 2.09375 C 2.929688 2.363281 2.679688 2.554688 2.390625 2.671875 C 2.097656 2.796875 1.75 2.859375 1.34375 2.859375 Z M 1.34375 2.859375 "/></g></g></g><g fill="#ffffff" fill-opacity="1"><g transform="translate(396.061434, 791.204044)"><g><path d="M 1.171875 2.734375 L 1.171875 -6.734375 L 2.171875 -6.734375 L 2.171875 -5.734375 L 2.296875 -5.703125 C 2.796875 -6.484375 3.53125 -6.875 4.5 -6.875 C 5.0625 -6.875 5.550781 -6.742188 5.96875 -6.484375 C 6.394531 -6.222656 6.722656 -5.832031 6.953125 -5.3125 C 7.179688 -4.789062 7.296875 -4.144531 7.296875 -3.375 C 7.296875 -2.601562 7.171875 -1.953125 6.921875 -1.421875 C 6.679688 -0.898438 6.347656 -0.507812 5.921875 -0.25 C 5.492188 0 5 0.125 4.4375 0.125 C 3.976562 0.125 3.570312 0.046875 3.21875 -0.109375 C 2.863281 -0.265625 2.554688 -0.523438 2.296875 -0.890625 L 2.171875 -0.875 L 2.171875 2.734375 Z M 4.203125 -0.765625 C 5.578125 -0.765625 6.265625 -1.632812 6.265625 -3.375 C 6.265625 -5.113281 5.578125 -5.984375 4.203125 -5.984375 C 3.804688 -5.984375 3.453125 -5.890625 3.140625 -5.703125 C 2.835938 -5.515625 2.597656 -5.226562 2.421875 -4.84375 C 2.253906 -4.457031 2.171875 -3.96875 2.171875 -3.375 C 2.171875 -2.78125 2.253906 -2.285156 2.421875 -1.890625 C 2.597656 -1.503906 2.835938 -1.21875 3.140625 -1.03125 C 3.453125 -0.851562 3.804688 -0.765625 4.203125 -0.765625 Z M 4.203125 -0.765625 "/></g></g></g><g fill="#ffffff" fill-opacity="1"><g transform="translate(404.103701, 791.204044)"><g><path d="M 6.421875 -3.140625 L 1.796875 -3.140625 C 1.816406 -2.316406 2.007812 -1.710938 2.375 -1.328125 C 2.738281 -0.953125 3.238281 -0.765625 3.875 -0.765625 C 4.363281 -0.765625 4.753906 -0.847656 5.046875 -1.015625 C 5.335938 -1.191406 5.566406 -1.460938 5.734375 -1.828125 L 5.859375 -1.828125 L 6.515625 -1.4375 C 6.316406 -0.945312 6 -0.5625 5.5625 -0.28125 C 5.132812 -0.0078125 4.570312 0.125 3.875 0.125 C 3.226562 0.125 2.671875 0 2.203125 -0.25 C 1.734375 -0.507812 1.367188 -0.898438 1.109375 -1.421875 C 0.859375 -1.941406 0.734375 -2.59375 0.734375 -3.375 C 0.734375 -4.132812 0.867188 -4.773438 1.140625 -5.296875 C 1.410156 -5.828125 1.773438 -6.222656 2.234375 -6.484375 C 2.691406 -6.742188 3.21875 -6.875 3.8125 -6.875 C 4.675781 -6.875 5.347656 -6.628906 5.828125 -6.140625 C 6.316406 -5.648438 6.566406 -4.925781 6.578125 -3.96875 C 6.578125 -3.59375 6.566406 -3.34375 6.546875 -3.21875 Z M 5.59375 -3.96875 C 5.570312 -4.6875 5.410156 -5.207031 5.109375 -5.53125 C 4.804688 -5.863281 4.375 -6.03125 3.8125 -6.03125 C 3.226562 -6.03125 2.765625 -5.863281 2.421875 -5.53125 C 2.085938 -5.207031 1.882812 -4.6875 1.8125 -3.96875 Z M 5.59375 -3.96875 "/></g></g></g><g fill="#ffffff" fill-opacity="1"><g transform="translate(410.776991, 791.204044)"><g><path d="M 5.390625 1.421875 L 0 1.421875 L 0 0.59375 L 5.390625 0.59375 Z M 5.390625 1.421875 "/></g></g></g><g fill="#ffffff" fill-opacity="1"><g transform="translate(415.623048, 791.204044)"><g><path d="M 3.5 0.125 C 2.957031 0.125 2.476562 0 2.0625 -0.25 C 1.644531 -0.507812 1.316406 -0.898438 1.078125 -1.421875 C 0.847656 -1.953125 0.734375 -2.601562 0.734375 -3.375 C 0.734375 -4.132812 0.851562 -4.773438 1.09375 -5.296875 C 1.34375 -5.828125 1.679688 -6.222656 2.109375 -6.484375 C 2.546875 -6.742188 3.046875 -6.875 3.609375 -6.875 C 4.054688 -6.875 4.457031 -6.785156 4.8125 -6.609375 C 5.175781 -6.441406 5.488281 -6.164062 5.75 -5.78125 L 5.875 -5.8125 L 5.875 -9.453125 L 6.875 -9.453125 L 6.875 0 L 5.875 0 L 5.875 -0.984375 L 5.75 -1.015625 C 5.53125 -0.671875 5.226562 -0.394531 4.84375 -0.1875 C 4.46875 0.0195312 4.019531 0.125 3.5 0.125 Z M 3.8125 -0.765625 C 4.4375 -0.765625 4.9375 -0.976562 5.3125 -1.40625 C 5.6875 -1.832031 5.875 -2.488281 5.875 -3.375 C 5.875 -4.25 5.6875 -4.898438 5.3125 -5.328125 C 4.9375 -5.765625 4.4375 -5.984375 3.8125 -5.984375 C 3.15625 -5.984375 2.648438 -5.769531 2.296875 -5.34375 C 1.953125 -4.925781 1.78125 -4.269531 1.78125 -3.375 C 1.78125 -1.632812 2.457031 -0.765625 3.8125 -0.765625 Z M 3.8125 -0.765625 "/></g></g></g><g fill="#ffffff" fill-opacity="1"><g transform="translate(423.671426, 791.204044)"><g><path d="M 2.78125 0.125 C 2.113281 0.125 1.59375 -0.046875 1.21875 -0.390625 C 0.851562 -0.734375 0.671875 -1.226562 0.671875 -1.875 C 0.671875 -2.269531 0.75 -2.601562 0.90625 -2.875 C 1.070312 -3.15625 1.328125 -3.378906 1.671875 -3.546875 C 2.023438 -3.722656 2.476562 -3.859375 3.03125 -3.953125 C 3.519531 -4.035156 3.890625 -4.128906 4.140625 -4.234375 C 4.398438 -4.335938 4.570312 -4.453125 4.65625 -4.578125 C 4.75 -4.703125 4.796875 -4.859375 4.796875 -5.046875 C 4.796875 -5.359375 4.691406 -5.59375 4.484375 -5.75 C 4.273438 -5.914062 3.9375 -6 3.46875 -6 C 3.03125 -6 2.65625 -5.914062 2.34375 -5.75 C 2.03125 -5.582031 1.742188 -5.332031 1.484375 -5 L 1.375 -5 L 0.875 -5.6875 C 1.164062 -6.050781 1.53125 -6.335938 1.96875 -6.546875 C 2.40625 -6.765625 2.90625 -6.875 3.46875 -6.875 C 4.257812 -6.875 4.84375 -6.695312 5.21875 -6.34375 C 5.601562 -6 5.796875 -5.519531 5.796875 -4.90625 L 5.796875 -1.328125 C 5.796875 -0.953125 5.953125 -0.765625 6.265625 -0.765625 C 6.367188 -0.765625 6.472656 -0.78125 6.578125 -0.8125 L 6.65625 -0.796875 L 6.78125 -0.109375 C 6.707031 -0.0546875 6.609375 -0.0195312 6.484375 0 C 6.367188 0.03125 6.25 0.046875 6.125 0.046875 C 5.75 0.046875 5.46875 -0.03125 5.28125 -0.1875 C 5.09375 -0.351562 4.96875 -0.597656 4.90625 -0.921875 L 4.78125 -0.921875 C 4.59375 -0.566406 4.332031 -0.300781 4 -0.125 C 3.675781 0.0390625 3.269531 0.125 2.78125 0.125 Z M 3 -0.671875 C 3.375 -0.671875 3.695312 -0.753906 3.96875 -0.921875 C 4.25 -1.097656 4.460938 -1.34375 4.609375 -1.65625 C 4.753906 -1.96875 4.828125 -2.332031 4.828125 -2.75 L 4.828125 -3.59375 L 4.71875 -3.625 C 4.5625 -3.519531 4.375 -3.429688 4.15625 -3.359375 C 3.945312 -3.285156 3.644531 -3.222656 3.25 -3.171875 C 2.863281 -3.117188 2.554688 -3.035156 2.328125 -2.921875 C 2.097656 -2.804688 1.929688 -2.664062 1.828125 -2.5 C 1.734375 -2.332031 1.6875 -2.125 1.6875 -1.875 C 1.6875 -1.476562 1.800781 -1.175781 2.03125 -0.96875 C 2.269531 -0.769531 2.59375 -0.671875 3 -0.671875 Z M 3 -0.671875 "/></g></g></g><g fill="#ffffff" fill-opacity="1"><g transform="translate(430.564786, 791.204044)"><g><path d="M 4.5625 -1.0625 L 4.875 -0.359375 C 4.71875 -0.191406 4.507812 -0.0703125 4.25 0 C 3.988281 0.0820312 3.707031 0.125 3.40625 0.125 C 2.125 0.125 1.484375 -0.523438 1.484375 -1.828125 L 1.484375 -5.921875 L 0.3125 -5.921875 L 0.3125 -6.75 L 1.484375 -6.75 L 1.484375 -8.171875 L 2.46875 -8.328125 L 2.46875 -6.75 L 4.640625 -6.75 L 4.640625 -5.921875 L 2.46875 -5.921875 L 2.46875 -1.921875 C 2.46875 -1.148438 2.804688 -0.765625 3.484375 -0.765625 C 3.847656 -0.765625 4.164062 -0.863281 4.4375 -1.0625 Z M 4.5625 -1.0625 "/></g></g></g><g fill="#ffffff" fill-opacity="1"><g transform="translate(435.698147, 791.204044)"><g><path d="M 2.78125 0.125 C 2.113281 0.125 1.59375 -0.046875 1.21875 -0.390625 C 0.851562 -0.734375 0.671875 -1.226562 0.671875 -1.875 C 0.671875 -2.269531 0.75 -2.601562 0.90625 -2.875 C 1.070312 -3.15625 1.328125 -3.378906 1.671875 -3.546875 C 2.023438 -3.722656 2.476562 -3.859375 3.03125 -3.953125 C 3.519531 -4.035156 3.890625 -4.128906 4.140625 -4.234375 C 4.398438 -4.335938 4.570312 -4.453125 4.65625 -4.578125 C 4.75 -4.703125 4.796875 -4.859375 4.796875 -5.046875 C 4.796875 -5.359375 4.691406 -5.59375 4.484375 -5.75 C 4.273438 -5.914062 3.9375 -6 3.46875 -6 C 3.03125 -6 2.65625 -5.914062 2.34375 -5.75 C 2.03125 -5.582031 1.742188 -5.332031 1.484375 -5 L 1.375 -5 L 0.875 -5.6875 C 1.164062 -6.050781 1.53125 -6.335938 1.96875 -6.546875 C 2.40625 -6.765625 2.90625 -6.875 3.46875 -6.875 C 4.257812 -6.875 4.84375 -6.695312 5.21875 -6.34375 C 5.601562 -6 5.796875 -5.519531 5.796875 -4.90625 L 5.796875 -1.328125 C 5.796875 -0.953125 5.953125 -0.765625 6.265625 -0.765625 C 6.367188 -0.765625 6.472656 -0.78125 6.578125 -0.8125 L 6.65625 -0.796875 L 6.78125 -0.109375 C 6.707031 -0.0546875 6.609375 -0.0195312 6.484375 0 C 6.367188 0.03125 6.25 0.046875 6.125 0.046875 C 5.75 0.046875 5.46875 -0.03125 5.28125 -0.1875 C 5.09375 -0.351562 4.96875 -0.597656 4.90625 -0.921875 L 4.78125 -0.921875 C 4.59375 -0.566406 4.332031 -0.300781 4 -0.125 C 3.675781 0.0390625 3.269531 0.125 2.78125 0.125 Z M 3 -0.671875 C 3.375 -0.671875 3.695312 -0.753906 3.96875 -0.921875 C 4.25 -1.097656 4.460938 -1.34375 4.609375 -1.65625 C 4.753906 -1.96875 4.828125 -2.332031 4.828125 -2.75 L 4.828125 -3.59375 L 4.71875 -3.625 C 4.5625 -3.519531 4.375 -3.429688 4.15625 -3.359375 C 3.945312 -3.285156 3.644531 -3.222656 3.25 -3.171875 C 2.863281 -3.117188 2.554688 -3.035156 2.328125 -2.921875 C 2.097656 -2.804688 1.929688 -2.664062 1.828125 -2.5 C 1.734375 -2.332031 1.6875 -2.125 1.6875 -1.875 C 1.6875 -1.476562 1.800781 -1.175781 2.03125 -0.96875 C 2.269531 -0.769531 2.59375 -0.671875 3 -0.671875 Z M 3 -0.671875 "/></g></g></g><g fill="#ffffff" fill-opacity="1"><g transform="translate(443.001011, 791.204044)"><g><path d="M 1.640625 0.0625 C 1.410156 0.0625 1.226562 0 1.09375 -0.125 C 0.957031 -0.257812 0.890625 -0.4375 0.890625 -0.65625 C 0.890625 -0.863281 0.957031 -1.035156 1.09375 -1.171875 C 1.226562 -1.304688 1.410156 -1.375 1.640625 -1.375 C 1.878906 -1.375 2.066406 -1.304688 2.203125 -1.171875 C 2.335938 -1.046875 2.40625 -0.878906 2.40625 -0.671875 C 2.40625 -0.453125 2.335938 -0.273438 2.203125 -0.140625 C 2.066406 -0.00390625 1.878906 0.0625 1.640625 0.0625 Z M 1.640625 0.0625 "/></g></g></g><g fill="#ffffff" fill-opacity="1"><g transform="translate(446.294918, 791.204044)"><g><path d="M 3.078125 0.125 C 2.648438 0.125 2.253906 0.0703125 1.890625 -0.03125 C 1.535156 -0.144531 1.234375 -0.300781 0.984375 -0.5 C 0.734375 -0.695312 0.554688 -0.914062 0.453125 -1.15625 L 1.046875 -1.765625 L 1.171875 -1.765625 C 1.390625 -1.429688 1.65625 -1.179688 1.96875 -1.015625 C 2.28125 -0.847656 2.648438 -0.765625 3.078125 -0.765625 C 3.566406 -0.765625 3.941406 -0.859375 4.203125 -1.046875 C 4.460938 -1.242188 4.59375 -1.515625 4.59375 -1.859375 C 4.59375 -2.128906 4.515625 -2.347656 4.359375 -2.515625 C 4.203125 -2.691406 3.945312 -2.820312 3.59375 -2.90625 L 2.46875 -3.1875 C 1.851562 -3.332031 1.40625 -3.5625 1.125 -3.875 C 0.851562 -4.195312 0.71875 -4.59375 0.71875 -5.0625 C 0.71875 -5.425781 0.8125 -5.742188 1 -6.015625 C 1.1875 -6.285156 1.453125 -6.492188 1.796875 -6.640625 C 2.148438 -6.796875 2.570312 -6.875 3.0625 -6.875 C 3.675781 -6.875 4.160156 -6.785156 4.515625 -6.609375 C 4.878906 -6.429688 5.160156 -6.191406 5.359375 -5.890625 L 4.796875 -5.328125 L 4.671875 -5.328125 C 4.453125 -5.578125 4.21875 -5.753906 3.96875 -5.859375 C 3.71875 -5.972656 3.414062 -6.03125 3.0625 -6.03125 C 2.613281 -6.03125 2.269531 -5.953125 2.03125 -5.796875 C 1.800781 -5.640625 1.6875 -5.410156 1.6875 -5.109375 C 1.6875 -4.835938 1.769531 -4.617188 1.9375 -4.453125 C 2.101562 -4.285156 2.394531 -4.148438 2.8125 -4.046875 L 3.921875 -3.78125 C 4.515625 -3.632812 4.941406 -3.398438 5.203125 -3.078125 C 5.460938 -2.765625 5.59375 -2.363281 5.59375 -1.875 C 5.59375 -1.476562 5.5 -1.128906 5.3125 -0.828125 C 5.125 -0.523438 4.835938 -0.289062 4.453125 -0.125 C 4.078125 0.0390625 3.617188 0.125 3.078125 0.125 Z M 3.078125 0.125 "/></g></g></g><g fill="#ffffff" fill-opacity="1"><g transform="translate(452.424385, 791.204044)"><g><path d="M 4.265625 0 L 2.890625 0 L 0.328125 -6.734375 L 1.40625 -6.734375 L 3.53125 -1.140625 L 3.671875 -1.140625 L 5.765625 -6.734375 L 6.8125 -6.734375 Z M 4.265625 0 "/></g></g></g><g fill="#ffffff" fill-opacity="1"><g transform="translate(459.415511, 791.204044)"><g><path d="M 3.46875 2.859375 C 2.40625 2.859375 1.628906 2.679688 1.140625 2.328125 C 0.648438 1.972656 0.40625 1.503906 0.40625 0.921875 C 0.40625 0.535156 0.519531 0.226562 0.75 0 C 0.976562 -0.21875 1.3125 -0.375 1.75 -0.46875 L 1.75 -0.59375 C 1.539062 -0.71875 1.382812 -0.859375 1.28125 -1.015625 C 1.175781 -1.171875 1.125 -1.359375 1.125 -1.578125 C 1.125 -1.835938 1.207031 -2.050781 1.375 -2.21875 C 1.539062 -2.382812 1.785156 -2.507812 2.109375 -2.59375 L 2.109375 -2.71875 C 1.378906 -3.101562 1.015625 -3.734375 1.015625 -4.609375 C 1.015625 -5.046875 1.113281 -5.4375 1.3125 -5.78125 C 1.507812 -6.125 1.789062 -6.390625 2.15625 -6.578125 C 2.53125 -6.773438 2.960938 -6.875 3.453125 -6.875 C 4.023438 -6.875 4.5 -6.75 4.875 -6.5 C 5.019531 -6.65625 5.125 -6.820312 5.1875 -7 C 5.257812 -7.1875 5.304688 -7.394531 5.328125 -7.625 L 5.46875 -7.703125 L 6.28125 -7.5 C 6.238281 -7.15625 6.132812 -6.863281 5.96875 -6.625 C 5.800781 -6.394531 5.570312 -6.203125 5.28125 -6.046875 L 5.28125 -5.921875 C 5.488281 -5.753906 5.644531 -5.550781 5.75 -5.3125 C 5.851562 -5.082031 5.90625 -4.816406 5.90625 -4.515625 C 5.90625 -4.085938 5.800781 -3.703125 5.59375 -3.359375 C 5.394531 -3.023438 5.109375 -2.757812 4.734375 -2.5625 C 4.367188 -2.375 3.941406 -2.28125 3.453125 -2.28125 C 3.398438 -2.28125 3.300781 -2.285156 3.15625 -2.296875 C 2.988281 -2.304688 2.867188 -2.3125 2.796875 -2.3125 C 2.578125 -2.3125 2.40625 -2.253906 2.28125 -2.140625 C 2.15625 -2.035156 2.09375 -1.894531 2.09375 -1.71875 C 2.09375 -1.507812 2.160156 -1.351562 2.296875 -1.25 C 2.429688 -1.15625 2.65625 -1.101562 2.96875 -1.09375 L 4.578125 -1.03125 C 5.265625 -1.007812 5.769531 -0.847656 6.09375 -0.546875 C 6.425781 -0.253906 6.59375 0.160156 6.59375 0.703125 C 6.59375 1.109375 6.484375 1.472656 6.265625 1.796875 C 6.054688 2.117188 5.71875 2.375 5.25 2.5625 C 4.78125 2.757812 4.1875 2.859375 3.46875 2.859375 Z M 3.453125 -3.140625 C 3.929688 -3.140625 4.300781 -3.265625 4.5625 -3.515625 C 4.820312 -3.765625 4.953125 -4.113281 4.953125 -4.5625 C 4.953125 -5.019531 4.820312 -5.375 4.5625 -5.625 C 4.3125 -5.882812 3.941406 -6.015625 3.453125 -6.015625 C 2.972656 -6.015625 2.609375 -5.890625 2.359375 -5.640625 C 2.109375 -5.390625 1.984375 -5.03125 1.984375 -4.5625 C 1.984375 -4.101562 2.109375 -3.75 2.359375 -3.5 C 2.609375 -3.257812 2.972656 -3.140625 3.453125 -3.140625 Z M 3.46875 2 C 3.96875 2 4.375 1.941406 4.6875 1.828125 C 5 1.722656 5.222656 1.578125 5.359375 1.390625 C 5.503906 1.210938 5.578125 1.015625 5.578125 0.796875 C 5.578125 0.597656 5.539062 0.4375 5.46875 0.3125 C 5.394531 0.1875 5.273438 0.09375 5.109375 0.03125 C 4.941406 -0.03125 4.710938 -0.0664062 4.421875 -0.078125 L 2.90625 -0.15625 L 2.6875 -0.15625 C 1.851562 -0.144531 1.4375 0.179688 1.4375 0.828125 C 1.4375 1.609375 2.113281 2 3.46875 2 Z M 3.46875 2 "/></g></g></g><g clip-path="url(#57d11412bc)"><g clip-path="url(#429f0e3497)"><path fill="#ff914d" d="M 17.070312 443.46875 L 792.882812 443.46875 L 792.882812 778.957031 L 17.070312 778.957031 Z M 17.070312 443.46875 " fill-opacity="1" fill-rule="nonzero"/></g></g><g mask="url(#cd85ab7a90)"><g transform="matrix(1, 0, 0, 1, 17, 383)"><g clip-path="url(#c317ab14af)"><g clip-path="url(#d8cc198873)"><g clip-path="url(#cd301fb2b0)"><path fill="#000000" d="M 0.0703125 0.683594 L 775.882812 0.683594 L 775.882812 336.171875 L 0.0703125 336.171875 Z M 0.0703125 0.683594 " fill-opacity="1" fill-rule="nonzero"/></g></g></g></g></g><g clip-path="url(#98c2aca0ca)"><g clip-path="url(#cd50ecb414)"><path fill="#ffbd59" d="M 17.070312 336.148438 L 792.882812 336.148438 L 792.882812 671.636719 L 17.070312 671.636719 Z M 17.070312 336.148438 " fill-opacity="1" fill-rule="nonzero"/></g></g><g mask="url(#9992298b94)"><g transform="matrix(1, 0, 0, 1, 17, 288)"><g clip-path="url(#b70965c029)"><g clip-path="url(#a018e1192d)"><g clip-path="url(#b53bf0f023)"><path fill="#000000" d="M 0.0703125 0.664062 L 775.882812 0.664062 L 775.882812 336.152344 L 0.0703125 336.152344 Z M 0.0703125 0.664062 " fill-opacity="1" fill-rule="nonzero"/></g></g></g></g></g><g clip-path="url(#f97d285e3e)"><g clip-path="url(#6381ce50a4)"><path fill="#ff5757" d="M 17.070312 237.257812 L 792.882812 237.257812 L 792.882812 572.742188 L 17.070312 572.742188 Z M 17.070312 237.257812 " fill-opacity="1" fill-rule="nonzero"/></g></g><g mask="url(#47d57d4dcf)"><g transform="matrix(1, 0, 0, 1, 17, 168)"><g clip-path="url(#b54285ddc2)"><g clip-path="url(#f9a5a7cba7)"><g clip-path="url(#2cbe4b8c6c)"><path fill="#000000" d="M 0.0703125 0.40625 L 775.882812 0.40625 L 775.882812 335.894531 L 0.0703125 335.894531 Z M 0.0703125 0.40625 " fill-opacity="1" fill-rule="nonzero"/></g></g></g></g></g><g clip-path="url(#17a62a0933)"><g clip-path="url(#34441ca2c3)"><path fill="#38b6ff" d="M 17.070312 115.714844 L 792.882812 115.714844 L 792.882812 451.203125 L 17.070312 451.203125 Z M 17.070312 115.714844 " fill-opacity="1" fill-rule="nonzero"/></g></g><g fill="#ffffff" fill-opacity="1"><g transform="translate(343.658655, 791.204044)"><g><path d="M 1.5 0 L 1.5 -5.921875 L 0.328125 -5.921875 L 0.328125 -6.75 L 1.5 -6.75 C 1.425781 -7.039062 1.390625 -7.316406 1.390625 -7.578125 C 1.390625 -8.015625 1.484375 -8.382812 1.671875 -8.6875 C 1.859375 -8.988281 2.113281 -9.210938 2.4375 -9.359375 C 2.769531 -9.503906 3.15625 -9.578125 3.59375 -9.578125 C 4.257812 -9.578125 4.773438 -9.429688 5.140625 -9.140625 L 4.75 -8.4375 L 4.625 -8.421875 C 4.351562 -8.628906 4.007812 -8.734375 3.59375 -8.734375 C 3.195312 -8.734375 2.894531 -8.628906 2.6875 -8.421875 C 2.488281 -8.222656 2.390625 -7.9375 2.390625 -7.5625 C 2.390625 -7.332031 2.425781 -7.0625 2.5 -6.75 L 4.640625 -6.75 L 4.640625 -5.921875 L 2.5 -5.921875 L 2.5 0 Z M 1.5 0 "/></g></g></g><g fill="#ffffff" fill-opacity="1"><g transform="translate(348.382558, 791.204044)"><g><path d="M 3.875 0.125 C 3.238281 0.125 2.679688 -0.00390625 2.203125 -0.265625 C 1.734375 -0.535156 1.367188 -0.929688 1.109375 -1.453125 C 0.859375 -1.984375 0.734375 -2.625 0.734375 -3.375 C 0.734375 -4.113281 0.859375 -4.742188 1.109375 -5.265625 C 1.367188 -5.796875 1.734375 -6.195312 2.203125 -6.46875 C 2.679688 -6.738281 3.238281 -6.875 3.875 -6.875 C 4.507812 -6.875 5.0625 -6.738281 5.53125 -6.46875 C 6 -6.195312 6.359375 -5.796875 6.609375 -5.265625 C 6.867188 -4.742188 7 -4.113281 7 -3.375 C 7 -2.625 6.867188 -1.984375 6.609375 -1.453125 C 6.359375 -0.929688 6 -0.535156 5.53125 -0.265625 C 5.0625 -0.00390625 4.507812 0.125 3.875 0.125 Z M 3.875 -0.765625 C 4.539062 -0.765625 5.050781 -0.972656 5.40625 -1.390625 C 5.769531 -1.816406 5.953125 -2.476562 5.953125 -3.375 C 5.953125 -4.257812 5.769531 -4.914062 5.40625 -5.34375 C 5.050781 -5.769531 4.539062 -5.984375 3.875 -5.984375 C 3.195312 -5.984375 2.675781 -5.769531 2.3125 -5.34375 C 1.957031 -4.914062 1.78125 -4.257812 1.78125 -3.375 C 1.78125 -2.476562 1.957031 -1.816406 2.3125 -1.390625 C 2.675781 -0.972656 3.195312 -0.765625 3.875 -0.765625 Z M 3.875 -0.765625 "/></g></g></g><g fill="#ffffff" fill-opacity="1"><g transform="translate(356.119267, 791.204044)"><g><path d="M 2.6875 0.125 C 2.207031 0.125 1.832031 -0.0078125 1.5625 -0.28125 C 1.289062 -0.550781 1.15625 -0.953125 1.15625 -1.484375 L 1.15625 -9.453125 L 2.140625 -9.453125 L 2.140625 -1.5625 C 2.140625 -1.28125 2.191406 -1.078125 2.296875 -0.953125 C 2.410156 -0.828125 2.582031 -0.765625 2.8125 -0.765625 C 2.945312 -0.765625 3.085938 -0.785156 3.234375 -0.828125 L 3.3125 -0.8125 L 3.4375 -0.03125 C 3.363281 0.0195312 3.257812 0.0546875 3.125 0.078125 C 2.988281 0.109375 2.84375 0.125 2.6875 0.125 Z M 2.6875 0.125 "/></g></g></g><g fill="#ffffff" fill-opacity="1"><g transform="translate(359.785954, 791.204044)"><g><path d="M 3.5 0.125 C 2.957031 0.125 2.476562 0 2.0625 -0.25 C 1.644531 -0.507812 1.316406 -0.898438 1.078125 -1.421875 C 0.847656 -1.953125 0.734375 -2.601562 0.734375 -3.375 C 0.734375 -4.132812 0.851562 -4.773438 1.09375 -5.296875 C 1.34375 -5.828125 1.679688 -6.222656 2.109375 -6.484375 C 2.546875 -6.742188 3.046875 -6.875 3.609375 -6.875 C 4.054688 -6.875 4.457031 -6.785156 4.8125 -6.609375 C 5.175781 -6.441406 5.488281 -6.164062 5.75 -5.78125 L 5.875 -5.8125 L 5.875 -9.453125 L 6.875 -9.453125 L 6.875 0 L 5.875 0 L 5.875 -0.984375 L 5.75 -1.015625 C 5.53125 -0.671875 5.226562 -0.394531 4.84375 -0.1875 C 4.46875 0.0195312 4.019531 0.125 3.5 0.125 Z M 3.8125 -0.765625 C 4.4375 -0.765625 4.9375 -0.976562 5.3125 -1.40625 C 5.6875 -1.832031 5.875 -2.488281 5.875 -3.375 C 5.875 -4.25 5.6875 -4.898438 5.3125 -5.328125 C 4.9375 -5.765625 4.4375 -5.984375 3.8125 -5.984375 C 3.15625 -5.984375 2.648438 -5.769531 2.296875 -5.34375 C 1.953125 -4.925781 1.78125 -4.269531 1.78125 -3.375 C 1.78125 -1.632812 2.457031 -0.765625 3.8125 -0.765625 Z M 3.8125 -0.765625 "/></g></g></g><g fill="#ffffff" fill-opacity="1"><g transform="translate(367.834332, 791.204044)"><g><path d="M 6.421875 -3.140625 L 1.796875 -3.140625 C 1.816406 -2.316406 2.007812 -1.710938 2.375 -1.328125 C 2.738281 -0.953125 3.238281 -0.765625 3.875 -0.765625 C 4.363281 -0.765625 4.753906 -0.847656 5.046875 -1.015625 C 5.335938 -1.191406 5.566406 -1.460938 5.734375 -1.828125 L 5.859375 -1.828125 L 6.515625 -1.4375 C 6.316406 -0.945312 6 -0.5625 5.5625 -0.28125 C 5.132812 -0.0078125 4.570312 0.125 3.875 0.125 C 3.226562 0.125 2.671875 0 2.203125 -0.25 C 1.734375 -0.507812 1.367188 -0.898438 1.109375 -1.421875 C 0.859375 -1.941406 0.734375 -2.59375 0.734375 -3.375 C 0.734375 -4.132812 0.867188 -4.773438 1.140625 -5.296875 C 1.410156 -5.828125 1.773438 -6.222656 2.234375 -6.484375 C 2.691406 -6.742188 3.21875 -6.875 3.8125 -6.875 C 4.675781 -6.875 5.347656 -6.628906 5.828125 -6.140625 C 6.316406 -5.648438 6.566406 -4.925781 6.578125 -3.96875 C 6.578125 -3.59375 6.566406 -3.34375 6.546875 -3.21875 Z M 5.59375 -3.96875 C 5.570312 -4.6875 5.410156 -5.207031 5.109375 -5.53125 C 4.804688 -5.863281 4.375 -6.03125 3.8125 -6.03125 C 3.226562 -6.03125 2.765625 -5.863281 2.421875 -5.53125 C 2.085938 -5.207031 1.882812 -4.6875 1.8125 -3.96875 Z M 5.59375 -3.96875 "/></g></g></g><g fill="#ffffff" fill-opacity="1"><g transform="translate(375.021038, 791.204044)"><g><path d="M 1.171875 0 L 1.171875 -6.734375 L 2.125 -6.734375 L 2.125 -5.6875 L 2.25 -5.65625 C 2.5625 -6.414062 3.148438 -6.796875 4.015625 -6.796875 C 4.484375 -6.796875 4.828125 -6.710938 5.046875 -6.546875 L 4.796875 -5.703125 L 4.671875 -5.6875 C 4.421875 -5.8125 4.144531 -5.875 3.84375 -5.875 C 3.300781 -5.875 2.882812 -5.671875 2.59375 -5.265625 C 2.3125 -4.859375 2.171875 -4.207031 2.171875 -3.3125 L 2.171875 0 Z M 1.171875 0 "/></g></g></g><g fill="#ffffff" fill-opacity="1"><g transform="translate(378.950309, 791.204044)"><g><path d="M 5.390625 1.421875 L 0 1.421875 L 0 0.59375 L 5.390625 0.59375 Z M 5.390625 1.421875 "/></g></g></g><g fill="#ffffff" fill-opacity="1"><g transform="translate(383.820812, 791.204044)"><g><path d="M 4.5625 -1.0625 L 4.875 -0.359375 C 4.71875 -0.191406 4.507812 -0.0703125 4.25 0 C 3.988281 0.0820312 3.707031 0.125 3.40625 0.125 C 2.125 0.125 1.484375 -0.523438 1.484375 -1.828125 L 1.484375 -5.921875 L 0.3125 -5.921875 L 0.3125 -6.75 L 1.484375 -6.75 L 1.484375 -8.171875 L 2.46875 -8.328125 L 2.46875 -6.75 L 4.640625 -6.75 L 4.640625 -5.921875 L 2.46875 -5.921875 L 2.46875 -1.921875 C 2.46875 -1.148438 2.804688 -0.765625 3.484375 -0.765625 C 3.847656 -0.765625 4.164062 -0.863281 4.4375 -1.0625 Z M 4.5625 -1.0625 "/></g></g></g><g fill="#ffffff" fill-opacity="1"><g transform="translate(388.954173, 791.204044)"><g><path d="M 1.34375 2.859375 C 1.125 2.859375 0.914062 2.835938 0.71875 2.796875 C 0.519531 2.765625 0.347656 2.710938 0.203125 2.640625 L 0.390625 1.859375 L 0.5 1.8125 C 0.59375 1.863281 0.710938 1.90625 0.859375 1.9375 C 1.003906 1.976562 1.15625 2 1.3125 2 C 1.582031 2 1.804688 1.957031 1.984375 1.875 C 2.171875 1.800781 2.328125 1.679688 2.453125 1.515625 C 2.578125 1.347656 2.695312 1.113281 2.8125 0.8125 L 3.046875 0.15625 L 0.34375 -6.734375 L 1.421875 -6.734375 L 3.53125 -1.234375 L 3.65625 -1.234375 L 5.703125 -6.734375 L 6.734375 -6.734375 L 3.71875 1.0625 C 3.539062 1.488281 3.347656 1.832031 3.140625 2.09375 C 2.929688 2.363281 2.679688 2.554688 2.390625 2.671875 C 2.097656 2.796875 1.75 2.859375 1.34375 2.859375 Z M 1.34375 2.859375 "/></g></g></g><g fill="#ffffff" fill-opacity="1"><g transform="translate(396.061434, 791.204044)"><g><path d="M 1.171875 2.734375 L 1.171875 -6.734375 L 2.171875 -6.734375 L 2.171875 -5.734375 L 2.296875 -5.703125 C 2.796875 -6.484375 3.53125 -6.875 4.5 -6.875 C 5.0625 -6.875 5.550781 -6.742188 5.96875 -6.484375 C 6.394531 -6.222656 6.722656 -5.832031 6.953125 -5.3125 C 7.179688 -4.789062 7.296875 -4.144531 7.296875 -3.375 C 7.296875 -2.601562 7.171875 -1.953125 6.921875 -1.421875 C 6.679688 -0.898438 6.347656 -0.507812 5.921875 -0.25 C 5.492188 0 5 0.125 4.4375 0.125 C 3.976562 0.125 3.570312 0.046875 3.21875 -0.109375 C 2.863281 -0.265625 2.554688 -0.523438 2.296875 -0.890625 L 2.171875 -0.875 L 2.171875 2.734375 Z M 4.203125 -0.765625 C 5.578125 -0.765625 6.265625 -1.632812 6.265625 -3.375 C 6.265625 -5.113281 5.578125 -5.984375 4.203125 -5.984375 C 3.804688 -5.984375 3.453125 -5.890625 3.140625 -5.703125 C 2.835938 -5.515625 2.597656 -5.226562 2.421875 -4.84375 C 2.253906 -4.457031 2.171875 -3.96875 2.171875 -3.375 C 2.171875 -2.78125 2.253906 -2.285156 2.421875 -1.890625 C 2.597656 -1.503906 2.835938 -1.21875 3.140625 -1.03125 C 3.453125 -0.851562 3.804688 -0.765625 4.203125 -0.765625 Z M 4.203125 -0.765625 "/></g></g></g><g fill="#ffffff" fill-opacity="1"><g transform="translate(404.103701, 791.204044)"><g><path d="M 6.421875 -3.140625 L 1.796875 -3.140625 C 1.816406 -2.316406 2.007812 -1.710938 2.375 -1.328125 C 2.738281 -0.953125 3.238281 -0.765625 3.875 -0.765625 C 4.363281 -0.765625 4.753906 -0.847656 5.046875 -1.015625 C 5.335938 -1.191406 5.566406 -1.460938 5.734375 -1.828125 L 5.859375 -1.828125 L 6.515625 -1.4375 C 6.316406 -0.945312 6 -0.5625 5.5625 -0.28125 C 5.132812 -0.0078125 4.570312 0.125 3.875 0.125 C 3.226562 0.125 2.671875 0 2.203125 -0.25 C 1.734375 -0.507812 1.367188 -0.898438 1.109375 -1.421875 C 0.859375 -1.941406 0.734375 -2.59375 0.734375 -3.375 C 0.734375 -4.132812 0.867188 -4.773438 1.140625 -5.296875 C 1.410156 -5.828125 1.773438 -6.222656 2.234375 -6.484375 C 2.691406 -6.742188 3.21875 -6.875 3.8125 -6.875 C 4.675781 -6.875 5.347656 -6.628906 5.828125 -6.140625 C 6.316406 -5.648438 6.566406 -4.925781 6.578125 -3.96875 C 6.578125 -3.59375 6.566406 -3.34375 6.546875 -3.21875 Z M 5.59375 -3.96875 C 5.570312 -4.6875 5.410156 -5.207031 5.109375 -5.53125 C 4.804688 -5.863281 4.375 -6.03125 3.8125 -6.03125 C 3.226562 -6.03125 2.765625 -5.863281 2.421875 -5.53125 C 2.085938 -5.207031 1.882812 -4.6875 1.8125 -3.96875 Z M 5.59375 -3.96875 "/></g></g></g><g fill="#ffffff" fill-opacity="1"><g transform="translate(410.776991, 791.204044)"><g><path d="M 5.390625 1.421875 L 0 1.421875 L 0 0.59375 L 5.390625 0.59375 Z M 5.390625 1.421875 "/></g></g></g><g fill="#ffffff" fill-opacity="1"><g transform="translate(415.623048, 791.204044)"><g><path d="M 3.5 0.125 C 2.957031 0.125 2.476562 0 2.0625 -0.25 C 1.644531 -0.507812 1.316406 -0.898438 1.078125 -1.421875 C 0.847656 -1.953125 0.734375 -2.601562 0.734375 -3.375 C 0.734375 -4.132812 0.851562 -4.773438 1.09375 -5.296875 C 1.34375 -5.828125 1.679688 -6.222656 2.109375 -6.484375 C 2.546875 -6.742188 3.046875 -6.875 3.609375 -6.875 C 4.054688 -6.875 4.457031 -6.785156 4.8125 -6.609375 C 5.175781 -6.441406 5.488281 -6.164062 5.75 -5.78125 L 5.875 -5.8125 L 5.875 -9.453125 L 6.875 -9.453125 L 6.875 0 L 5.875 0 L 5.875 -0.984375 L 5.75 -1.015625 C 5.53125 -0.671875 5.226562 -0.394531 4.84375 -0.1875 C 4.46875 0.0195312 4.019531 0.125 3.5 0.125 Z M 3.8125 -0.765625 C 4.4375 -0.765625 4.9375 -0.976562 5.3125 -1.40625 C 5.6875 -1.832031 5.875 -2.488281 5.875 -3.375 C 5.875 -4.25 5.6875 -4.898438 5.3125 -5.328125 C 4.9375 -5.765625 4.4375 -5.984375 3.8125 -5.984375 C 3.15625 -5.984375 2.648438 -5.769531 2.296875 -5.34375 C 1.953125 -4.925781 1.78125 -4.269531 1.78125 -3.375 C 1.78125 -1.632812 2.457031 -0.765625 3.8125 -0.765625 Z M 3.8125 -0.765625 "/></g></g></g><g fill="#ffffff" fill-opacity="1"><g transform="translate(423.671426, 791.204044)"><g><path d="M 2.78125 0.125 C 2.113281 0.125 1.59375 -0.046875 1.21875 -0.390625 C 0.851562 -0.734375 0.671875 -1.226562 0.671875 -1.875 C 0.671875 -2.269531 0.75 -2.601562 0.90625 -2.875 C 1.070312 -3.15625 1.328125 -3.378906 1.671875 -3.546875 C 2.023438 -3.722656 2.476562 -3.859375 3.03125 -3.953125 C 3.519531 -4.035156 3.890625 -4.128906 4.140625 -4.234375 C 4.398438 -4.335938 4.570312 -4.453125 4.65625 -4.578125 C 4.75 -4.703125 4.796875 -4.859375 4.796875 -5.046875 C 4.796875 -5.359375 4.691406 -5.59375 4.484375 -5.75 C 4.273438 -5.914062 3.9375 -6 3.46875 -6 C 3.03125 -6 2.65625 -5.914062 2.34375 -5.75 C 2.03125 -5.582031 1.742188 -5.332031 1.484375 -5 L 1.375 -5 L 0.875 -5.6875 C 1.164062 -6.050781 1.53125 -6.335938 1.96875 -6.546875 C 2.40625 -6.765625 2.90625 -6.875 3.46875 -6.875 C 4.257812 -6.875 4.84375 -6.695312 5.21875 -6.34375 C 5.601562 -6 5.796875 -5.519531 5.796875 -4.90625 L 5.796875 -1.328125 C 5.796875 -0.953125 5.953125 -0.765625 6.265625 -0.765625 C 6.367188 -0.765625 6.472656 -0.78125 6.578125 -0.8125 L 6.65625 -0.796875 L 6.78125 -0.109375 C 6.707031 -0.0546875 6.609375 -0.0195312 6.484375 0 C 6.367188 0.03125 6.25 0.046875 6.125 0.046875 C 5.75 0.046875 5.46875 -0.03125 5.28125 -0.1875 C 5.09375 -0.351562 4.96875 -0.597656 4.90625 -0.921875 L 4.78125 -0.921875 C 4.59375 -0.566406 4.332031 -0.300781 4 -0.125 C 3.675781 0.0390625 3.269531 0.125 2.78125 0.125 Z M 3 -0.671875 C 3.375 -0.671875 3.695312 -0.753906 3.96875 -0.921875 C 4.25 -1.097656 4.460938 -1.34375 4.609375 -1.65625 C 4.753906 -1.96875 4.828125 -2.332031 4.828125 -2.75 L 4.828125 -3.59375 L 4.71875 -3.625 C 4.5625 -3.519531 4.375 -3.429688 4.15625 -3.359375 C 3.945312 -3.285156 3.644531 -3.222656 3.25 -3.171875 C 2.863281 -3.117188 2.554688 -3.035156 2.328125 -2.921875 C 2.097656 -2.804688 1.929688 -2.664062 1.828125 -2.5 C 1.734375 -2.332031 1.6875 -2.125 1.6875 -1.875 C 1.6875 -1.476562 1.800781 -1.175781 2.03125 -0.96875 C 2.269531 -0.769531 2.59375 -0.671875 3 -0.671875 Z M 3 -0.671875 "/></g></g></g><g fill="#ffffff" fill-opacity="1"><g transform="translate(430.564786, 791.204044)"><g><path d="M 4.5625 -1.0625 L 4.875 -0.359375 C 4.71875 -0.191406 4.507812 -0.0703125 4.25 0 C 3.988281 0.0820312 3.707031 0.125 3.40625 0.125 C 2.125 0.125 1.484375 -0.523438 1.484375 -1.828125 L 1.484375 -5.921875 L 0.3125 -5.921875 L 0.3125 -6.75 L 1.484375 -6.75 L 1.484375 -8.171875 L 2.46875 -8.328125 L 2.46875 -6.75 L 4.640625 -6.75 L 4.640625 -5.921875 L 2.46875 -5.921875 L 2.46875 -1.921875 C 2.46875 -1.148438 2.804688 -0.765625 3.484375 -0.765625 C 3.847656 -0.765625 4.164062 -0.863281 4.4375 -1.0625 Z M 4.5625 -1.0625 "/></g></g></g><g fill="#ffffff" fill-opacity="1"><g transform="translate(435.698147, 791.204044)"><g><path d="M 2.78125 0.125 C 2.113281 0.125 1.59375 -0.046875 1.21875 -0.390625 C 0.851562 -0.734375 0.671875 -1.226562 0.671875 -1.875 C 0.671875 -2.269531 0.75 -2.601562 0.90625 -2.875 C 1.070312 -3.15625 1.328125 -3.378906 1.671875 -3.546875 C 2.023438 -3.722656 2.476562 -3.859375 3.03125 -3.953125 C 3.519531 -4.035156 3.890625 -4.128906 4.140625 -4.234375 C 4.398438 -4.335938 4.570312 -4.453125 4.65625 -4.578125 C 4.75 -4.703125 4.796875 -4.859375 4.796875 -5.046875 C 4.796875 -5.359375 4.691406 -5.59375 4.484375 -5.75 C 4.273438 -5.914062 3.9375 -6 3.46875 -6 C 3.03125 -6 2.65625 -5.914062 2.34375 -5.75 C 2.03125 -5.582031 1.742188 -5.332031 1.484375 -5 L 1.375 -5 L 0.875 -5.6875 C 1.164062 -6.050781 1.53125 -6.335938 1.96875 -6.546875 C 2.40625 -6.765625 2.90625 -6.875 3.46875 -6.875 C 4.257812 -6.875 4.84375 -6.695312 5.21875 -6.34375 C 5.601562 -6 5.796875 -5.519531 5.796875 -4.90625 L 5.796875 -1.328125 C 5.796875 -0.953125 5.953125 -0.765625 6.265625 -0.765625 C 6.367188 -0.765625 6.472656 -0.78125 6.578125 -0.8125 L 6.65625 -0.796875 L 6.78125 -0.109375 C 6.707031 -0.0546875 6.609375 -0.0195312 6.484375 0 C 6.367188 0.03125 6.25 0.046875 6.125 0.046875 C 5.75 0.046875 5.46875 -0.03125 5.28125 -0.1875 C 5.09375 -0.351562 4.96875 -0.597656 4.90625 -0.921875 L 4.78125 -0.921875 C 4.59375 -0.566406 4.332031 -0.300781 4 -0.125 C 3.675781 0.0390625 3.269531 0.125 2.78125 0.125 Z M 3 -0.671875 C 3.375 -0.671875 3.695312 -0.753906 3.96875 -0.921875 C 4.25 -1.097656 4.460938 -1.34375 4.609375 -1.65625 C 4.753906 -1.96875 4.828125 -2.332031 4.828125 -2.75 L 4.828125 -3.59375 L 4.71875 -3.625 C 4.5625 -3.519531 4.375 -3.429688 4.15625 -3.359375 C 3.945312 -3.285156 3.644531 -3.222656 3.25 -3.171875 C 2.863281 -3.117188 2.554688 -3.035156 2.328125 -2.921875 C 2.097656 -2.804688 1.929688 -2.664062 1.828125 -2.5 C 1.734375 -2.332031 1.6875 -2.125 1.6875 -1.875 C 1.6875 -1.476562 1.800781 -1.175781 2.03125 -0.96875 C 2.269531 -0.769531 2.59375 -0.671875 3 -0.671875 Z M 3 -0.671875 "/></g></g></g><g fill="#ffffff" fill-opacity="1"><g transform="translate(443.001011, 791.204044)"><g><path d="M 1.640625 0.0625 C 1.410156 0.0625 1.226562 0 1.09375 -0.125 C 0.957031 -0.257812 0.890625 -0.4375 0.890625 -0.65625 C 0.890625 -0.863281 0.957031 -1.035156 1.09375 -1.171875 C 1.226562 -1.304688 1.410156 -1.375 1.640625 -1.375 C 1.878906 -1.375 2.066406 -1.304688 2.203125 -1.171875 C 2.335938 -1.046875 2.40625 -0.878906 2.40625 -0.671875 C 2.40625 -0.453125 2.335938 -0.273438 2.203125 -0.140625 C 2.066406 -0.00390625 1.878906 0.0625 1.640625 0.0625 Z M 1.640625 0.0625 "/></g></g></g><g fill="#ffffff" fill-opacity="1"><g transform="translate(446.294918, 791.204044)"><g><path d="M 3.078125 0.125 C 2.648438 0.125 2.253906 0.0703125 1.890625 -0.03125 C 1.535156 -0.144531 1.234375 -0.300781 0.984375 -0.5 C 0.734375 -0.695312 0.554688 -0.914062 0.453125 -1.15625 L 1.046875 -1.765625 L 1.171875 -1.765625 C 1.390625 -1.429688 1.65625 -1.179688 1.96875 -1.015625 C 2.28125 -0.847656 2.648438 -0.765625 3.078125 -0.765625 C 3.566406 -0.765625 3.941406 -0.859375 4.203125 -1.046875 C 4.460938 -1.242188 4.59375 -1.515625 4.59375 -1.859375 C 4.59375 -2.128906 4.515625 -2.347656 4.359375 -2.515625 C 4.203125 -2.691406 3.945312 -2.820312 3.59375 -2.90625 L 2.46875 -3.1875 C 1.851562 -3.332031 1.40625 -3.5625 1.125 -3.875 C 0.851562 -4.195312 0.71875 -4.59375 0.71875 -5.0625 C 0.71875 -5.425781 0.8125 -5.742188 1 -6.015625 C 1.1875 -6.285156 1.453125 -6.492188 1.796875 -6.640625 C 2.148438 -6.796875 2.570312 -6.875 3.0625 -6.875 C 3.675781 -6.875 4.160156 -6.785156 4.515625 -6.609375 C 4.878906 -6.429688 5.160156 -6.191406 5.359375 -5.890625 L 4.796875 -5.328125 L 4.671875 -5.328125 C 4.453125 -5.578125 4.21875 -5.753906 3.96875 -5.859375 C 3.71875 -5.972656 3.414062 -6.03125 3.0625 -6.03125 C 2.613281 -6.03125 2.269531 -5.953125 2.03125 -5.796875 C 1.800781 -5.640625 1.6875 -5.410156 1.6875 -5.109375 C 1.6875 -4.835938 1.769531 -4.617188 1.9375 -4.453125 C 2.101562 -4.285156 2.394531 -4.148438 2.8125 -4.046875 L 3.921875 -3.78125 C 4.515625 -3.632812 4.941406 -3.398438 5.203125 -3.078125 C 5.460938 -2.765625 5.59375 -2.363281 5.59375 -1.875 C 5.59375 -1.476562 5.5 -1.128906 5.3125 -0.828125 C 5.125 -0.523438 4.835938 -0.289062 4.453125 -0.125 C 4.078125 0.0390625 3.617188 0.125 3.078125 0.125 Z M 3.078125 0.125 "/></g></g></g><g fill="#ffffff" fill-opacity="1"><g transform="translate(452.424385, 791.204044)"><g><path d="M 4.265625 0 L 2.890625 0 L 0.328125 -6.734375 L 1.40625 -6.734375 L 3.53125 -1.140625 L 3.671875 -1.140625 L 5.765625 -6.734375 L 6.8125 -6.734375 Z M 4.265625 0 "/></g></g></g><g fill="#ffffff" fill-opacity="1"><g transform="translate(459.415511, 791.204044)"><g><path d="M 3.46875 2.859375 C 2.40625 2.859375 1.628906 2.679688 1.140625 2.328125 C 0.648438 1.972656 0.40625 1.503906 0.40625 0.921875 C 0.40625 0.535156 0.519531 0.226562 0.75 0 C 0.976562 -0.21875 1.3125 -0.375 1.75 -0.46875 L 1.75 -0.59375 C 1.539062 -0.71875 1.382812 -0.859375 1.28125 -1.015625 C 1.175781 -1.171875 1.125 -1.359375 1.125 -1.578125 C 1.125 -1.835938 1.207031 -2.050781 1.375 -2.21875 C 1.539062 -2.382812 1.785156 -2.507812 2.109375 -2.59375 L 2.109375 -2.71875 C 1.378906 -3.101562 1.015625 -3.734375 1.015625 -4.609375 C 1.015625 -5.046875 1.113281 -5.4375 1.3125 -5.78125 C 1.507812 -6.125 1.789062 -6.390625 2.15625 -6.578125 C 2.53125 -6.773438 2.960938 -6.875 3.453125 -6.875 C 4.023438 -6.875 4.5 -6.75 4.875 -6.5 C 5.019531 -6.65625 5.125 -6.820312 5.1875 -7 C 5.257812 -7.1875 5.304688 -7.394531 5.328125 -7.625 L 5.46875 -7.703125 L 6.28125 -7.5 C 6.238281 -7.15625 6.132812 -6.863281 5.96875 -6.625 C 5.800781 -6.394531 5.570312 -6.203125 5.28125 -6.046875 L 5.28125 -5.921875 C 5.488281 -5.753906 5.644531 -5.550781 5.75 -5.3125 C 5.851562 -5.082031 5.90625 -4.816406 5.90625 -4.515625 C 5.90625 -4.085938 5.800781 -3.703125 5.59375 -3.359375 C 5.394531 -3.023438 5.109375 -2.757812 4.734375 -2.5625 C 4.367188 -2.375 3.941406 -2.28125 3.453125 -2.28125 C 3.398438 -2.28125 3.300781 -2.285156 3.15625 -2.296875 C 2.988281 -2.304688 2.867188 -2.3125 2.796875 -2.3125 C 2.578125 -2.3125 2.40625 -2.253906 2.28125 -2.140625 C 2.15625 -2.035156 2.09375 -1.894531 2.09375 -1.71875 C 2.09375 -1.507812 2.160156 -1.351562 2.296875 -1.25 C 2.429688 -1.15625 2.65625 -1.101562 2.96875 -1.09375 L 4.578125 -1.03125 C 5.265625 -1.007812 5.769531 -0.847656 6.09375 -0.546875 C 6.425781 -0.253906 6.59375 0.160156 6.59375 0.703125 C 6.59375 1.109375 6.484375 1.472656 6.265625 1.796875 C 6.054688 2.117188 5.71875 2.375 5.25 2.5625 C 4.78125 2.757812 4.1875 2.859375 3.46875 2.859375 Z M 3.453125 -3.140625 C 3.929688 -3.140625 4.300781 -3.265625 4.5625 -3.515625 C 4.820312 -3.765625 4.953125 -4.113281 4.953125 -4.5625 C 4.953125 -5.019531 4.820312 -5.375 4.5625 -5.625 C 4.3125 -5.882812 3.941406 -6.015625 3.453125 -6.015625 C 2.972656 -6.015625 2.609375 -5.890625 2.359375 -5.640625 C 2.109375 -5.390625 1.984375 -5.03125 1.984375 -4.5625 C 1.984375 -4.101562 2.109375 -3.75 2.359375 -3.5 C 2.609375 -3.257812 2.972656 -3.140625 3.453125 -3.140625 Z M 3.46875 2 C 3.96875 2 4.375 1.941406 4.6875 1.828125 C 5 1.722656 5.222656 1.578125 5.359375 1.390625 C 5.503906 1.210938 5.578125 1.015625 5.578125 0.796875 C 5.578125 0.597656 5.539062 0.4375 5.46875 0.3125 C 5.394531 0.1875 5.273438 0.09375 5.109375 0.03125 C 4.941406 -0.03125 4.710938 -0.0664062 4.421875 -0.078125 L 2.90625 -0.15625 L 2.6875 -0.15625 C 1.851562 -0.144531 1.4375 0.179688 1.4375 0.828125 C 1.4375 1.609375 2.113281 2 3.46875 2 Z M 3.46875 2 "/></g></g></g></svg>