<svg width="16" height="16" viewBox="0 0 16 16" xmlns="http://www.w3.org/2000/svg">
    <path fill="#8E8E8E" d="M13.854 3.646a.5.5 0 0 1 0 .708l-7 7a.5.5 0 0 1-.708 0l-3.5-3.5a.5.5 0 1 1 .708-.708L6.5 10.293l6.646-6.647a.5.5 0 0 1 .708 0z"/>
    <path fill="#8E8E8E" d="M2 2a2 2 0 0 1 2-2h8a2 2 0 0 1 2 2v12a2 2 0 0 1-2 2H4a2 2 0 0 1-2-2V2zm10-1H4a1 1 0 0 0-1 1v12a1 1 0 0 0 1 1h8a1 1 0 0 0 1-1V2a1 1 0 0 0-1-1z"/>
    <path fill="#8E8E8E" d="M4.5 5h7a.5.5 0 0 1 0 1h-7a.5.5 0 0 1 0-1zm0 2h7a.5.5 0 0 1 0 1h-7a.5.5 0 0 1 0-1zm0 2h7a.5.5 0 0 1 0 1h-7a.5.5 0 0 1 0-1zm0 2h4a.5.5 0 0 1 0 1h-4a.5.5 0 0 1 0-1z"/>
</svg>