<svg width="16" height="16" viewBox="0 0 16 16" xmlns="http://www.w3.org/2000/svg">
    <path fill="#6A9955" d="M9.96 2.446v2.285h2.527L9.96 2.446z"/>
    <path fill="#6A9955" d="M9.543 5.312V2H3.25v12h9.5V5.73H9.543zm-2.34 6.434H4.797l-1.16-1.854.013-.062c.018-.067.36-1.233 1.003-1.729.535-.414 1.284-.614 2.232-.593l.076.025-1.147 1.832h.96l1.184-1.89a2.89 2.89 0 0 1 1.028.48c.408.318.63.767.642 1.3l-.026.063-1.14 1.82h.96l1.153-1.846c.242.835.007 1.604-.704 2.29-.763.739-1.687.867-2.168.877z"/>
</svg> 