<svg width="16" height="16" viewBox="0 0 16 16" xmlns="http://www.w3.org/2000/svg">
    <path fill="#F7DF1E" d="M1 1h14v14H1V1zm7.614 10.11c0 1.473.692 2.146 1.713 2.146.888 0 1.419-.418 1.684-.939l1.108.67c-.432.95-1.475 1.54-2.806 1.54-1.93 0-3.166-1.123-3.166-3.29V9.194c0-2.123 1.209-3.21 3.138-3.21 1.988 0 2.948 1.263 2.948 3.304v1.822H8.614zm2.654-1.528v-.226c0-1.168-.444-1.764-1.25-1.764-.805 0-1.39.596-1.39 1.764v.226h2.64zM6.344 10.978c0 1.43-.486 1.77-1.25 1.77-.638 0-1.042-.29-1.375-.634l-1.056.67c.486.608 1.263 1.014 2.444 1.014 1.762 0 2.696-.961 2.696-2.708V5.432H6.344v5.546z"/>
</svg>