<svg width="16" height="16" viewBox="0 0 16 16" xmlns="http://www.w3.org/2000/svg">
    <path fill="#659AD2" d="M13.5 4.12c0-.19-.07-.3-.27-.37L8.17 1.06c-.26-.12-.47-.1-.71 0L2.27 3.75c-.18.08-.27.2-.27.37v7.36c0 .19.09.3.27.37l5.17 2.69h.02c.13.06.25.08.36.08s.23-.02.36-.08l5.06-2.66.01-.01c.18-.08.27-.2.27-.37V4.12zm-3.25 2.67l-.01-.01a.753.753 0 00-.93-.02c-.26.19-.42.49-.42.81s.16.62.42.81c.13.1.29.15.47.15.16 0 .32-.05.46-.14l.01-.01c.26-.19.42-.49.42-.81s-.16-.62-.42-.78zM8 7.6c-.78 0-1.39-.6-1.39-1.35S7.22 4.9 8 4.9s1.39.6 1.39 1.35S8.78 7.6 8 7.6zm3.25 2.03h-.5v.5h-.5v-.5h-.5v-.5h.5v-.5h.5v.5h.5v.5zm1.75 0h-.5v.5h-.5v-.5H11v-.5h.5v-.5h.5v.5h.5v.5z"/>
</svg>